%TF.GenerationSoftware,KiCad,Pcbnew,8.0.2*%
%TF.CreationDate,2025-02-14T13:13:44+07:00*%
%TF.ProjectId,as5600_bracket,61733536-3030-45f6-9272-61636b65742e,rev?*%
%TF.SameCoordinates,Original*%
%TF.FileFunction,Profile,NP*%
%FSLAX46Y46*%
G04 Gerber Fmt 4.6, Leading zero omitted, Abs format (unit mm)*
G04 Created by KiCad (PCBNEW 8.0.2) date 2025-02-14 13:13:44*
%MOMM*%
%LPD*%
G01*
G04 APERTURE LIST*
%TA.AperFunction,Profile*%
%ADD10C,0.050000*%
%TD*%
G04 APERTURE END LIST*
D10*
X192754500Y-140322500D02*
X192755000Y-140322500D01*
X180822500Y-108255000D02*
X180822500Y-108254500D01*
X134395000Y-48345000D02*
G75*
G02*
X131295000Y-48345000I-1550000J0D01*
G01*
X131295000Y-48345000D02*
G75*
G02*
X134395000Y-48345000I1550000J0D01*
G01*
X148754500Y-140322500D02*
X148755000Y-140322500D01*
X106300000Y-152300000D02*
G75*
G02*
X103200000Y-152300000I-1550000J0D01*
G01*
X103200000Y-152300000D02*
G75*
G02*
X106300000Y-152300000I1550000J0D01*
G01*
X38850000Y-115800000D02*
G75*
G02*
X35750000Y-115800000I-1550000J0D01*
G01*
X35750000Y-115800000D02*
G75*
G02*
X38850000Y-115800000I1550000J0D01*
G01*
X100777500Y-136345000D02*
X100777500Y-136345500D01*
X60750000Y-138850000D02*
X60750000Y-143175000D01*
X51675000Y-91800000D02*
X46850000Y-91800000D01*
X56777500Y-48345000D02*
X56777500Y-48345500D01*
X44845000Y-50895000D02*
X44845000Y-61705000D01*
X183675000Y-64255000D02*
X179395000Y-64255000D01*
X102205000Y-64255000D02*
G75*
G02*
X104755000Y-61705000I2550000J0D01*
G01*
X115800000Y-77300000D02*
X77800000Y-77300000D01*
X144777500Y-108255000D02*
X144777500Y-108254500D01*
X188777500Y-92345000D02*
X188777500Y-92345500D01*
X161800000Y-163300000D02*
X161800000Y-125300000D01*
X180822500Y-152255000D02*
X180822500Y-152254500D01*
X51675000Y-136300000D02*
G75*
G02*
X53925000Y-136300000I1125000J0D01*
G01*
X46400000Y-152300000D02*
G75*
G02*
X43300000Y-152300000I-1550000J0D01*
G01*
X43300000Y-152300000D02*
G75*
G02*
X46400000Y-152300000I1550000J0D01*
G01*
X148750000Y-143175000D02*
G75*
G02*
X148750000Y-145425000I0J-1125000D01*
G01*
X149300000Y-94350000D02*
G75*
G02*
X146750000Y-91800000I0J2550000D01*
G01*
X95675000Y-64255000D02*
X91395000Y-64255000D01*
X159800000Y-121300000D02*
X121800000Y-121300000D01*
X53925000Y-91800000D02*
X58750000Y-91800000D01*
X71800000Y-121300000D02*
X33800000Y-121300000D01*
X82850000Y-159800000D02*
G75*
G02*
X79750000Y-159800000I-1550000J0D01*
G01*
X79750000Y-159800000D02*
G75*
G02*
X82850000Y-159800000I1550000J0D01*
G01*
X185925000Y-64255000D02*
X190205000Y-64255000D01*
X121800000Y-79300000D02*
X119800000Y-81300000D01*
X31800000Y-163300000D02*
X31800000Y-125300000D01*
X113850000Y-84800000D02*
G75*
G02*
X110750000Y-84800000I-1550000J0D01*
G01*
X110750000Y-84800000D02*
G75*
G02*
X113850000Y-84800000I1550000J0D01*
G01*
X71800000Y-121300000D02*
X73800000Y-119300000D01*
X165800000Y-121300000D02*
X163800000Y-119300000D01*
X90850000Y-91800000D02*
G75*
G02*
X88300000Y-94350000I-2550000J0D01*
G01*
X132845000Y-96322500D02*
X132845500Y-96322500D01*
X38850000Y-71800000D02*
G75*
G02*
X35750000Y-71800000I-1550000J0D01*
G01*
X35750000Y-71800000D02*
G75*
G02*
X38850000Y-71800000I1550000J0D01*
G01*
X71800000Y-79300000D02*
X33800000Y-79300000D01*
X92822500Y-48345000D02*
X92822500Y-48345500D01*
X92822500Y-108255000D02*
X92822500Y-108254500D01*
X113850000Y-115800000D02*
G75*
G02*
X110750000Y-115800000I-1550000J0D01*
G01*
X110750000Y-115800000D02*
G75*
G02*
X113850000Y-115800000I1550000J0D01*
G01*
X203800000Y-77300000D02*
X205800000Y-75300000D01*
X203800000Y-35300000D02*
X205800000Y-37300000D01*
X92822500Y-64255000D02*
X92822500Y-64254500D01*
X203800000Y-77300000D02*
X165800000Y-77300000D01*
X159800000Y-77300000D02*
X121800000Y-77300000D01*
X136822500Y-108255000D02*
X136822500Y-108254500D01*
X133850000Y-91800000D02*
G75*
G02*
X130750000Y-91800000I-1550000J0D01*
G01*
X130750000Y-91800000D02*
G75*
G02*
X133850000Y-91800000I1550000J0D01*
G01*
X165800000Y-165300000D02*
X163800000Y-163300000D01*
X106850000Y-91800000D02*
G75*
G02*
X103750000Y-91800000I-1550000J0D01*
G01*
X103750000Y-91800000D02*
G75*
G02*
X106850000Y-91800000I1550000J0D01*
G01*
X148750000Y-138850000D02*
G75*
G02*
X146200000Y-136300000I0J2550000D01*
G01*
X148754500Y-104277500D02*
X148755000Y-104277500D01*
X44300000Y-94350000D02*
X44300000Y-106250000D01*
X33800000Y-121300000D02*
X31800000Y-119300000D01*
X115800000Y-121300000D02*
X77800000Y-121300000D01*
X159800000Y-165300000D02*
X121800000Y-165300000D01*
X100777500Y-48345000D02*
X100777500Y-48345500D01*
X126850000Y-159800000D02*
G75*
G02*
X123750000Y-159800000I-1550000J0D01*
G01*
X123750000Y-159800000D02*
G75*
G02*
X126850000Y-159800000I1550000J0D01*
G01*
X119800000Y-119300000D02*
X119800000Y-81300000D01*
X82850000Y-128800000D02*
G75*
G02*
X79750000Y-128800000I-1550000J0D01*
G01*
X79750000Y-128800000D02*
G75*
G02*
X82850000Y-128800000I1550000J0D01*
G01*
X176850000Y-145425000D02*
X176850000Y-149750000D01*
X178400000Y-152300000D02*
G75*
G02*
X175300000Y-152300000I-1550000J0D01*
G01*
X175300000Y-152300000D02*
G75*
G02*
X178400000Y-152300000I1550000J0D01*
G01*
X56777500Y-152255000D02*
X56777500Y-152254500D01*
X132300000Y-94350000D02*
X132300000Y-106250000D01*
X201850000Y-40800000D02*
G75*
G02*
X198750000Y-40800000I-1550000J0D01*
G01*
X198750000Y-40800000D02*
G75*
G02*
X201850000Y-40800000I1550000J0D01*
G01*
X141925000Y-136300000D02*
X146200000Y-136300000D01*
X176845000Y-96322500D02*
X176845500Y-96322500D01*
X192750000Y-143175000D02*
G75*
G02*
X192750000Y-145425000I0J-1125000D01*
G01*
X47395000Y-48345000D02*
G75*
G02*
X44845000Y-50895000I-2550000J0D01*
G01*
X44845000Y-60277500D02*
X44845500Y-60277500D01*
X159800000Y-165300000D02*
X161800000Y-163300000D01*
X113850000Y-40800000D02*
G75*
G02*
X110750000Y-40800000I-1550000J0D01*
G01*
X110750000Y-40800000D02*
G75*
G02*
X113850000Y-40800000I1550000J0D01*
G01*
X60754500Y-60277500D02*
X60755000Y-60277500D01*
X44850000Y-145425000D02*
G75*
G02*
X44850000Y-143175000I0J1125000D01*
G01*
X88845000Y-96322500D02*
X88845500Y-96322500D01*
X104750000Y-138850000D02*
X104750000Y-143175000D01*
X134400000Y-152300000D02*
G75*
G02*
X131300000Y-152300000I-1550000J0D01*
G01*
X131300000Y-152300000D02*
G75*
G02*
X134400000Y-152300000I1550000J0D01*
G01*
X192755000Y-61705000D02*
X192755000Y-50895000D01*
X88300000Y-94350000D02*
X88300000Y-106250000D01*
X148750000Y-145425000D02*
X148750000Y-149750000D01*
X47400000Y-136300000D02*
G75*
G02*
X44850000Y-138850000I-2550000J0D01*
G01*
X132850000Y-145425000D02*
X132850000Y-149750000D01*
X60754500Y-140322500D02*
X60755000Y-140322500D01*
X77800000Y-123300000D02*
X75800000Y-125300000D01*
X132845000Y-52322500D02*
X132845500Y-52322500D01*
X132845000Y-104277500D02*
X132845500Y-104277500D01*
X104750000Y-145425000D02*
X104750000Y-149750000D01*
X46395000Y-64255000D02*
G75*
G02*
X43295000Y-64255000I-1550000J0D01*
G01*
X43295000Y-64255000D02*
G75*
G02*
X46395000Y-64255000I1550000J0D01*
G01*
X60754500Y-148277500D02*
X60755000Y-148277500D01*
X146200000Y-152300000D02*
G75*
G02*
X148750000Y-149750000I2550000J0D01*
G01*
X53925000Y-136300000D02*
X58200000Y-136300000D01*
X88845000Y-61705000D02*
G75*
G02*
X91395000Y-64255000I0J-2550000D01*
G01*
X44845000Y-52322500D02*
X44845500Y-52322500D01*
X44845000Y-148277500D02*
X44845500Y-148277500D01*
X126850000Y-84800000D02*
G75*
G02*
X123750000Y-84800000I-1550000J0D01*
G01*
X123750000Y-84800000D02*
G75*
G02*
X126850000Y-84800000I1550000J0D01*
G01*
X117800000Y-163300000D02*
X117800000Y-125300000D01*
X60755000Y-61705000D02*
X60755000Y-50895000D01*
X88845000Y-148277500D02*
X88845500Y-148277500D01*
X178395000Y-64255000D02*
G75*
G02*
X175295000Y-64255000I-1550000J0D01*
G01*
X175295000Y-64255000D02*
G75*
G02*
X178395000Y-64255000I1550000J0D01*
G01*
X60750000Y-143175000D02*
G75*
G02*
X60750000Y-145425000I0J-1125000D01*
G01*
X44845000Y-104277500D02*
X44845500Y-104277500D01*
X139675000Y-64255000D02*
X135395000Y-64255000D01*
X150305000Y-48345000D02*
G75*
G02*
X147205000Y-48345000I-1550000J0D01*
G01*
X147205000Y-48345000D02*
G75*
G02*
X150305000Y-48345000I1550000J0D01*
G01*
X113850000Y-71800000D02*
G75*
G02*
X110750000Y-71800000I-1550000J0D01*
G01*
X110750000Y-71800000D02*
G75*
G02*
X113850000Y-71800000I1550000J0D01*
G01*
X31800000Y-119300000D02*
X31800000Y-81300000D01*
X58205000Y-64255000D02*
G75*
G02*
X60755000Y-61705000I2550000J0D01*
G01*
X82850000Y-84800000D02*
G75*
G02*
X79750000Y-84800000I-1550000J0D01*
G01*
X79750000Y-84800000D02*
G75*
G02*
X82850000Y-84800000I1550000J0D01*
G01*
X150300000Y-152300000D02*
G75*
G02*
X147200000Y-152300000I-1550000J0D01*
G01*
X147200000Y-152300000D02*
G75*
G02*
X150300000Y-152300000I1550000J0D01*
G01*
X89850000Y-108800000D02*
G75*
G02*
X86750000Y-108800000I-1550000J0D01*
G01*
X86750000Y-108800000D02*
G75*
G02*
X89850000Y-108800000I1550000J0D01*
G01*
X62300000Y-136300000D02*
G75*
G02*
X59200000Y-136300000I-1550000J0D01*
G01*
X59200000Y-136300000D02*
G75*
G02*
X62300000Y-136300000I1550000J0D01*
G01*
X91400000Y-136300000D02*
G75*
G02*
X88850000Y-138850000I-2550000J0D01*
G01*
X75800000Y-75300000D02*
X75800000Y-37300000D01*
X192754500Y-52322500D02*
X192755000Y-52322500D01*
X176845000Y-140322500D02*
X176845500Y-140322500D01*
X92822500Y-152255000D02*
X92822500Y-152254500D01*
X192754500Y-148277500D02*
X192755000Y-148277500D01*
X97925000Y-64255000D02*
G75*
G02*
X95675000Y-64255000I-1125000J0D01*
G01*
X115800000Y-77300000D02*
X117800000Y-75300000D01*
X203800000Y-123300000D02*
X165800000Y-123300000D01*
X183675000Y-136300000D02*
X179400000Y-136300000D01*
X148755000Y-50895000D02*
G75*
G02*
X146205000Y-48345000I0J2550000D01*
G01*
X159800000Y-123300000D02*
X161800000Y-125300000D01*
X133850000Y-108800000D02*
G75*
G02*
X130750000Y-108800000I-1550000J0D01*
G01*
X130750000Y-108800000D02*
G75*
G02*
X133850000Y-108800000I1550000J0D01*
G01*
X121800000Y-121300000D02*
X119800000Y-119300000D01*
X77800000Y-165300000D02*
X75800000Y-163300000D01*
X185925000Y-108800000D02*
X190750000Y-108800000D01*
X146200000Y-152300000D02*
X135400000Y-152300000D01*
X90400000Y-136300000D02*
G75*
G02*
X87300000Y-136300000I-1550000J0D01*
G01*
X87300000Y-136300000D02*
G75*
G02*
X90400000Y-136300000I1550000J0D01*
G01*
X165800000Y-79300000D02*
X163800000Y-81300000D01*
X113850000Y-128800000D02*
G75*
G02*
X110750000Y-128800000I-1550000J0D01*
G01*
X110750000Y-128800000D02*
G75*
G02*
X113850000Y-128800000I1550000J0D01*
G01*
X97925000Y-91800000D02*
X102750000Y-91800000D01*
X82850000Y-115800000D02*
G75*
G02*
X79750000Y-115800000I-1550000J0D01*
G01*
X79750000Y-115800000D02*
G75*
G02*
X82850000Y-115800000I1550000J0D01*
G01*
X149300000Y-94350000D02*
X149300000Y-106250000D01*
X115800000Y-35300000D02*
X77800000Y-35300000D01*
X176850000Y-145425000D02*
G75*
G02*
X176850000Y-143175000I0J1125000D01*
G01*
X97925000Y-64255000D02*
X102205000Y-64255000D01*
X71800000Y-35300000D02*
X33800000Y-35300000D01*
X170850000Y-128800000D02*
G75*
G02*
X167750000Y-128800000I-1550000J0D01*
G01*
X167750000Y-128800000D02*
G75*
G02*
X170850000Y-128800000I1550000J0D01*
G01*
X141925000Y-91800000D02*
X146750000Y-91800000D01*
X180822500Y-136345000D02*
X180822500Y-136345500D01*
X77800000Y-121300000D02*
X75800000Y-119300000D01*
X144777500Y-136345000D02*
X144777500Y-136345500D01*
X134395000Y-64255000D02*
G75*
G02*
X131295000Y-64255000I-1550000J0D01*
G01*
X131295000Y-64255000D02*
G75*
G02*
X134395000Y-64255000I1550000J0D01*
G01*
X126850000Y-40800000D02*
G75*
G02*
X123750000Y-40800000I-1550000J0D01*
G01*
X123750000Y-40800000D02*
G75*
G02*
X126850000Y-40800000I1550000J0D01*
G01*
X126850000Y-71800000D02*
G75*
G02*
X123750000Y-71800000I-1550000J0D01*
G01*
X123750000Y-71800000D02*
G75*
G02*
X126850000Y-71800000I1550000J0D01*
G01*
X176300000Y-106250000D02*
G75*
G02*
X178850000Y-108800000I0J-2550000D01*
G01*
X157850000Y-71800000D02*
G75*
G02*
X154750000Y-71800000I-1550000J0D01*
G01*
X154750000Y-71800000D02*
G75*
G02*
X157850000Y-71800000I1550000J0D01*
G01*
X185925000Y-64255000D02*
G75*
G02*
X183675000Y-64255000I-1125000J0D01*
G01*
X185925000Y-91800000D02*
X190750000Y-91800000D01*
X69850000Y-84800000D02*
G75*
G02*
X66750000Y-84800000I-1550000J0D01*
G01*
X66750000Y-84800000D02*
G75*
G02*
X69850000Y-84800000I1550000J0D01*
G01*
X141925000Y-64255000D02*
G75*
G02*
X139675000Y-64255000I-1125000J0D01*
G01*
X161800000Y-75300000D02*
X161800000Y-37300000D01*
X190205000Y-64255000D02*
G75*
G02*
X192755000Y-61705000I2550000J0D01*
G01*
X117800000Y-119300000D02*
X117800000Y-81300000D01*
X180822500Y-92345000D02*
X180822500Y-92345500D01*
X77800000Y-77300000D02*
X75800000Y-75300000D01*
X115800000Y-79300000D02*
X77800000Y-79300000D01*
X201850000Y-115800000D02*
G75*
G02*
X198750000Y-115800000I-1550000J0D01*
G01*
X198750000Y-115800000D02*
G75*
G02*
X201850000Y-115800000I1550000J0D01*
G01*
X203800000Y-165300000D02*
X165800000Y-165300000D01*
X170850000Y-40800000D02*
G75*
G02*
X167750000Y-40800000I-1550000J0D01*
G01*
X167750000Y-40800000D02*
G75*
G02*
X170850000Y-40800000I1550000J0D01*
G01*
X139675000Y-136300000D02*
X135400000Y-136300000D01*
X92822500Y-92345000D02*
X92822500Y-92345500D01*
X194850000Y-91800000D02*
G75*
G02*
X191750000Y-91800000I-1550000J0D01*
G01*
X191750000Y-91800000D02*
G75*
G02*
X194850000Y-91800000I1550000J0D01*
G01*
X88845000Y-50895000D02*
X88845000Y-61705000D01*
X148754500Y-148277500D02*
X148755000Y-148277500D01*
X60750000Y-138850000D02*
G75*
G02*
X58200000Y-136300000I0J2550000D01*
G01*
X38850000Y-40800000D02*
G75*
G02*
X35750000Y-40800000I-1550000J0D01*
G01*
X35750000Y-40800000D02*
G75*
G02*
X38850000Y-40800000I1550000J0D01*
G01*
X88300000Y-106250000D02*
G75*
G02*
X90850000Y-108800000I0J-2550000D01*
G01*
X176845000Y-52322500D02*
X176845500Y-52322500D01*
X148755000Y-61705000D02*
X148755000Y-50895000D01*
X144777500Y-92345000D02*
X144777500Y-92345500D01*
X106305000Y-64255000D02*
G75*
G02*
X103205000Y-64255000I-1550000J0D01*
G01*
X103205000Y-64255000D02*
G75*
G02*
X106305000Y-64255000I1550000J0D01*
G01*
X71800000Y-77300000D02*
X33800000Y-77300000D01*
X192754500Y-104277500D02*
X192755000Y-104277500D01*
X95675000Y-91800000D02*
X90850000Y-91800000D01*
X73800000Y-163300000D02*
X73800000Y-125300000D01*
X170850000Y-84800000D02*
G75*
G02*
X167750000Y-84800000I-1550000J0D01*
G01*
X167750000Y-84800000D02*
G75*
G02*
X170850000Y-84800000I1550000J0D01*
G01*
X150300000Y-136300000D02*
G75*
G02*
X147200000Y-136300000I-1550000J0D01*
G01*
X147200000Y-136300000D02*
G75*
G02*
X150300000Y-136300000I1550000J0D01*
G01*
X157850000Y-115800000D02*
G75*
G02*
X154750000Y-115800000I-1550000J0D01*
G01*
X154750000Y-115800000D02*
G75*
G02*
X157850000Y-115800000I1550000J0D01*
G01*
X165800000Y-77300000D02*
X163800000Y-75300000D01*
X69850000Y-115800000D02*
G75*
G02*
X66750000Y-115800000I-1550000J0D01*
G01*
X66750000Y-115800000D02*
G75*
G02*
X69850000Y-115800000I1550000J0D01*
G01*
X100777500Y-152255000D02*
X100777500Y-152254500D01*
X71800000Y-123300000D02*
X73800000Y-125300000D01*
X159800000Y-35300000D02*
X161800000Y-37300000D01*
X157850000Y-159800000D02*
G75*
G02*
X154750000Y-159800000I-1550000J0D01*
G01*
X154750000Y-159800000D02*
G75*
G02*
X157850000Y-159800000I1550000J0D01*
G01*
X176845000Y-60277500D02*
X176845500Y-60277500D01*
X159800000Y-79300000D02*
X161800000Y-81300000D01*
X176845000Y-61705000D02*
G75*
G02*
X179395000Y-64255000I0J-2550000D01*
G01*
X141925000Y-108800000D02*
G75*
G02*
X139675000Y-108800000I-1125000J0D01*
G01*
X90400000Y-152300000D02*
G75*
G02*
X87300000Y-152300000I-1550000J0D01*
G01*
X87300000Y-152300000D02*
G75*
G02*
X90400000Y-152300000I1550000J0D01*
G01*
X60754500Y-96322500D02*
X60755000Y-96322500D01*
X62300000Y-152300000D02*
G75*
G02*
X59200000Y-152300000I-1550000J0D01*
G01*
X59200000Y-152300000D02*
G75*
G02*
X62300000Y-152300000I1550000J0D01*
G01*
X165800000Y-35300000D02*
X163800000Y-37300000D01*
X159800000Y-121300000D02*
X161800000Y-119300000D01*
X185925000Y-108800000D02*
G75*
G02*
X183675000Y-108800000I-1125000J0D01*
G01*
X132850000Y-149750000D02*
G75*
G02*
X135400000Y-152300000I0J-2550000D01*
G01*
X135395000Y-48345000D02*
G75*
G02*
X132845000Y-50895000I-2550000J0D01*
G01*
X58200000Y-152300000D02*
X47400000Y-152300000D01*
X115800000Y-79300000D02*
X117800000Y-81300000D01*
X148754500Y-96322500D02*
X148755000Y-96322500D01*
X46850000Y-91800000D02*
G75*
G02*
X44300000Y-94350000I-2550000J0D01*
G01*
X46395000Y-48345000D02*
G75*
G02*
X43295000Y-48345000I-1550000J0D01*
G01*
X43295000Y-48345000D02*
G75*
G02*
X46395000Y-48345000I1550000J0D01*
G01*
X126850000Y-115800000D02*
G75*
G02*
X123750000Y-115800000I-1550000J0D01*
G01*
X123750000Y-115800000D02*
G75*
G02*
X126850000Y-115800000I1550000J0D01*
G01*
X176850000Y-143175000D02*
X176850000Y-138850000D01*
X44845000Y-96322500D02*
X44845500Y-96322500D01*
X170850000Y-71800000D02*
G75*
G02*
X167750000Y-71800000I-1550000J0D01*
G01*
X167750000Y-71800000D02*
G75*
G02*
X170850000Y-71800000I1550000J0D01*
G01*
X61300000Y-94350000D02*
G75*
G02*
X58750000Y-91800000I0J2550000D01*
G01*
X183675000Y-91800000D02*
G75*
G02*
X185925000Y-91800000I1125000J0D01*
G01*
X178400000Y-136300000D02*
G75*
G02*
X175300000Y-136300000I-1550000J0D01*
G01*
X175300000Y-136300000D02*
G75*
G02*
X178400000Y-136300000I1550000J0D01*
G01*
X203800000Y-165300000D02*
X205800000Y-163300000D01*
X104754500Y-148277500D02*
X104755000Y-148277500D01*
X148754500Y-52322500D02*
X148755000Y-52322500D01*
X77800000Y-35300000D02*
X75800000Y-37300000D01*
X179400000Y-136300000D02*
G75*
G02*
X176850000Y-138850000I-2550000J0D01*
G01*
X51675000Y-108800000D02*
X46850000Y-108800000D01*
X132300000Y-106250000D02*
G75*
G02*
X134850000Y-108800000I0J-2550000D01*
G01*
X69850000Y-159800000D02*
G75*
G02*
X66750000Y-159800000I-1550000J0D01*
G01*
X66750000Y-159800000D02*
G75*
G02*
X69850000Y-159800000I1550000J0D01*
G01*
X106300000Y-136300000D02*
G75*
G02*
X103200000Y-136300000I-1550000J0D01*
G01*
X103200000Y-136300000D02*
G75*
G02*
X106300000Y-136300000I1550000J0D01*
G01*
X71800000Y-123300000D02*
X33800000Y-123300000D01*
X132845000Y-140322500D02*
X132845500Y-140322500D01*
X203800000Y-121300000D02*
X205800000Y-119300000D01*
X192750000Y-138850000D02*
G75*
G02*
X190200000Y-136300000I0J2550000D01*
G01*
X194850000Y-108800000D02*
G75*
G02*
X191750000Y-108800000I-1550000J0D01*
G01*
X191750000Y-108800000D02*
G75*
G02*
X194850000Y-108800000I1550000J0D01*
G01*
X163800000Y-163300000D02*
X163800000Y-125300000D01*
X97925000Y-108800000D02*
G75*
G02*
X95675000Y-108800000I-1125000J0D01*
G01*
X193300000Y-94350000D02*
G75*
G02*
X190750000Y-91800000I0J2550000D01*
G01*
X56777500Y-92345000D02*
X56777500Y-92345500D01*
X106305000Y-48345000D02*
G75*
G02*
X103205000Y-48345000I-1550000J0D01*
G01*
X103205000Y-48345000D02*
G75*
G02*
X106305000Y-48345000I1550000J0D01*
G01*
X161800000Y-119300000D02*
X161800000Y-81300000D01*
X176845000Y-104277500D02*
X176845500Y-104277500D01*
X38850000Y-84800000D02*
G75*
G02*
X35750000Y-84800000I-1550000J0D01*
G01*
X35750000Y-84800000D02*
G75*
G02*
X38850000Y-84800000I1550000J0D01*
G01*
X146205000Y-64255000D02*
G75*
G02*
X148755000Y-61705000I2550000J0D01*
G01*
X159800000Y-79300000D02*
X121800000Y-79300000D01*
X104750000Y-138850000D02*
G75*
G02*
X102200000Y-136300000I0J2550000D01*
G01*
X121800000Y-165300000D02*
X119800000Y-163300000D01*
X136822500Y-48345000D02*
X136822500Y-48345500D01*
X58200000Y-152300000D02*
G75*
G02*
X60750000Y-149750000I2550000J0D01*
G01*
X115800000Y-123300000D02*
X77800000Y-123300000D01*
X201850000Y-84800000D02*
G75*
G02*
X198750000Y-84800000I-1550000J0D01*
G01*
X198750000Y-84800000D02*
G75*
G02*
X201850000Y-84800000I1550000J0D01*
G01*
X146205000Y-48345000D02*
X135395000Y-48345000D01*
X105300000Y-94350000D02*
G75*
G02*
X102750000Y-91800000I0J2550000D01*
G01*
X71800000Y-165300000D02*
X33800000Y-165300000D01*
X46400000Y-136300000D02*
G75*
G02*
X43300000Y-136300000I-1550000J0D01*
G01*
X43300000Y-136300000D02*
G75*
G02*
X46400000Y-136300000I1550000J0D01*
G01*
X148754500Y-60277500D02*
X148755000Y-60277500D01*
X119800000Y-75300000D02*
X119800000Y-37300000D01*
X132845000Y-50895000D02*
X132845000Y-61705000D01*
X60755000Y-50895000D02*
G75*
G02*
X58205000Y-48345000I0J2550000D01*
G01*
X201850000Y-128800000D02*
G75*
G02*
X198750000Y-128800000I-1550000J0D01*
G01*
X198750000Y-128800000D02*
G75*
G02*
X201850000Y-128800000I1550000J0D01*
G01*
X31800000Y-75300000D02*
X31800000Y-37300000D01*
X194305000Y-64255000D02*
G75*
G02*
X191205000Y-64255000I-1550000J0D01*
G01*
X191205000Y-64255000D02*
G75*
G02*
X194305000Y-64255000I1550000J0D01*
G01*
X89850000Y-91800000D02*
G75*
G02*
X86750000Y-91800000I-1550000J0D01*
G01*
X86750000Y-91800000D02*
G75*
G02*
X89850000Y-91800000I1550000J0D01*
G01*
X33800000Y-79300000D02*
X31800000Y-81300000D01*
X104754500Y-60277500D02*
X104755000Y-60277500D01*
X139675000Y-91800000D02*
X134850000Y-91800000D01*
X53925000Y-108800000D02*
G75*
G02*
X51675000Y-108800000I-1125000J0D01*
G01*
X62850000Y-108800000D02*
G75*
G02*
X59750000Y-108800000I-1550000J0D01*
G01*
X59750000Y-108800000D02*
G75*
G02*
X62850000Y-108800000I1550000J0D01*
G01*
X53925000Y-64255000D02*
X58205000Y-64255000D01*
X176845000Y-50895000D02*
X176845000Y-61705000D01*
X205800000Y-163300000D02*
X205800000Y-125300000D01*
X192755000Y-50895000D02*
G75*
G02*
X190205000Y-48345000I0J2550000D01*
G01*
X150850000Y-108800000D02*
G75*
G02*
X147750000Y-108800000I-1550000J0D01*
G01*
X147750000Y-108800000D02*
G75*
G02*
X150850000Y-108800000I1550000J0D01*
G01*
X69850000Y-128800000D02*
G75*
G02*
X66750000Y-128800000I-1550000J0D01*
G01*
X66750000Y-128800000D02*
G75*
G02*
X69850000Y-128800000I1550000J0D01*
G01*
X71800000Y-79300000D02*
X73800000Y-81300000D01*
X48822500Y-136345000D02*
X48822500Y-136345500D01*
X69850000Y-71800000D02*
G75*
G02*
X66750000Y-71800000I-1550000J0D01*
G01*
X66750000Y-71800000D02*
G75*
G02*
X69850000Y-71800000I1550000J0D01*
G01*
X38850000Y-128800000D02*
G75*
G02*
X35750000Y-128800000I-1550000J0D01*
G01*
X35750000Y-128800000D02*
G75*
G02*
X38850000Y-128800000I1550000J0D01*
G01*
X53925000Y-64255000D02*
G75*
G02*
X51675000Y-64255000I-1125000J0D01*
G01*
X88850000Y-145425000D02*
G75*
G02*
X88850000Y-143175000I0J1125000D01*
G01*
X163800000Y-119300000D02*
X163800000Y-81300000D01*
X113850000Y-159800000D02*
G75*
G02*
X110750000Y-159800000I-1550000J0D01*
G01*
X110750000Y-159800000D02*
G75*
G02*
X113850000Y-159800000I1550000J0D01*
G01*
X192754500Y-96322500D02*
X192755000Y-96322500D01*
X115800000Y-123300000D02*
X117800000Y-125300000D01*
X100777500Y-64255000D02*
X100777500Y-64254500D01*
X95675000Y-91800000D02*
G75*
G02*
X97925000Y-91800000I1125000J0D01*
G01*
X58750000Y-108800000D02*
G75*
G02*
X61300000Y-106250000I2550000J0D01*
G01*
X104754500Y-96322500D02*
X104755000Y-96322500D01*
X51675000Y-136300000D02*
X47400000Y-136300000D01*
X51675000Y-91800000D02*
G75*
G02*
X53925000Y-91800000I1125000J0D01*
G01*
X188777500Y-152255000D02*
X188777500Y-152254500D01*
X44850000Y-145425000D02*
X44850000Y-149750000D01*
X51675000Y-64255000D02*
X47395000Y-64255000D01*
X132845000Y-148277500D02*
X132845500Y-148277500D01*
X192750000Y-145425000D02*
X192750000Y-149750000D01*
X192750000Y-138850000D02*
X192750000Y-143175000D01*
X141925000Y-64255000D02*
X146205000Y-64255000D01*
X91395000Y-48345000D02*
G75*
G02*
X88845000Y-50895000I-2550000J0D01*
G01*
X176850000Y-149750000D02*
G75*
G02*
X179400000Y-152300000I0J-2550000D01*
G01*
X150850000Y-91800000D02*
G75*
G02*
X147750000Y-91800000I-1550000J0D01*
G01*
X147750000Y-91800000D02*
G75*
G02*
X150850000Y-91800000I1550000J0D01*
G01*
X102200000Y-152300000D02*
G75*
G02*
X104750000Y-149750000I2550000J0D01*
G01*
X102205000Y-48345000D02*
X91395000Y-48345000D01*
X92822500Y-136345000D02*
X92822500Y-136345500D01*
X159800000Y-35300000D02*
X121800000Y-35300000D01*
X192754500Y-60277500D02*
X192755000Y-60277500D01*
X115800000Y-165300000D02*
X117800000Y-163300000D01*
X44845000Y-140322500D02*
X44845500Y-140322500D01*
X193300000Y-94350000D02*
X193300000Y-106250000D01*
X33800000Y-77300000D02*
X31800000Y-75300000D01*
X144777500Y-48345000D02*
X144777500Y-48345500D01*
X48822500Y-48345000D02*
X48822500Y-48345500D01*
X176845000Y-148277500D02*
X176845500Y-148277500D01*
X48822500Y-152255000D02*
X48822500Y-152254500D01*
X203800000Y-35300000D02*
X165800000Y-35300000D01*
X144777500Y-64255000D02*
X144777500Y-64254500D01*
X190200000Y-152300000D02*
X179400000Y-152300000D01*
X48822500Y-92345000D02*
X48822500Y-92345500D01*
X90395000Y-48345000D02*
G75*
G02*
X87295000Y-48345000I-1550000J0D01*
G01*
X87295000Y-48345000D02*
G75*
G02*
X90395000Y-48345000I1550000J0D01*
G01*
X71800000Y-35300000D02*
X73800000Y-37300000D01*
X190200000Y-152300000D02*
G75*
G02*
X192750000Y-149750000I2550000J0D01*
G01*
X44850000Y-143175000D02*
X44850000Y-138850000D01*
X62850000Y-91800000D02*
G75*
G02*
X59750000Y-91800000I-1550000J0D01*
G01*
X59750000Y-91800000D02*
G75*
G02*
X62850000Y-91800000I1550000J0D01*
G01*
X119800000Y-163300000D02*
X119800000Y-125300000D01*
X104755000Y-50895000D02*
G75*
G02*
X102205000Y-48345000I0J2550000D01*
G01*
X100777500Y-108255000D02*
X100777500Y-108254500D01*
X139675000Y-91800000D02*
G75*
G02*
X141925000Y-91800000I1125000J0D01*
G01*
X88845000Y-60277500D02*
X88845500Y-60277500D01*
X102200000Y-152300000D02*
X91400000Y-152300000D01*
X132850000Y-145425000D02*
G75*
G02*
X132850000Y-143175000I0J1125000D01*
G01*
X104754500Y-104277500D02*
X104755000Y-104277500D01*
X132845000Y-61705000D02*
G75*
G02*
X135395000Y-64255000I0J-2550000D01*
G01*
X97925000Y-108800000D02*
X102750000Y-108800000D01*
X44300000Y-106250000D02*
G75*
G02*
X46850000Y-108800000I0J-2550000D01*
G01*
X61300000Y-94350000D02*
X61300000Y-106250000D01*
X121800000Y-123300000D02*
X119800000Y-125300000D01*
X95675000Y-108800000D02*
X90850000Y-108800000D01*
X183675000Y-108800000D02*
X178850000Y-108800000D01*
X194300000Y-152300000D02*
G75*
G02*
X191200000Y-152300000I-1550000J0D01*
G01*
X191200000Y-152300000D02*
G75*
G02*
X194300000Y-152300000I1550000J0D01*
G01*
X48822500Y-64255000D02*
X48822500Y-64254500D01*
X179395000Y-48345000D02*
G75*
G02*
X176845000Y-50895000I-2550000J0D01*
G01*
X159800000Y-123300000D02*
X121800000Y-123300000D01*
X148750000Y-138850000D02*
X148750000Y-143175000D01*
X104755000Y-61705000D02*
X104755000Y-50895000D01*
X139675000Y-108800000D02*
X134850000Y-108800000D01*
X136822500Y-152255000D02*
X136822500Y-152254500D01*
X157850000Y-40800000D02*
G75*
G02*
X154750000Y-40800000I-1550000J0D01*
G01*
X154750000Y-40800000D02*
G75*
G02*
X157850000Y-40800000I1550000J0D01*
G01*
X73800000Y-75300000D02*
X73800000Y-37300000D01*
X141925000Y-108800000D02*
X146750000Y-108800000D01*
X178395000Y-48345000D02*
G75*
G02*
X175295000Y-48345000I-1550000J0D01*
G01*
X175295000Y-48345000D02*
G75*
G02*
X178395000Y-48345000I1550000J0D01*
G01*
X56777500Y-136345000D02*
X56777500Y-136345500D01*
X77800000Y-79300000D02*
X75800000Y-81300000D01*
X188777500Y-48345000D02*
X188777500Y-48345500D01*
X60750000Y-145425000D02*
X60750000Y-149750000D01*
X71800000Y-77300000D02*
X73800000Y-75300000D01*
X136822500Y-92345000D02*
X136822500Y-92345500D01*
X136822500Y-136345000D02*
X136822500Y-136345500D01*
X205800000Y-75300000D02*
X205800000Y-37300000D01*
X188777500Y-136345000D02*
X188777500Y-136345500D01*
X48822500Y-108255000D02*
X48822500Y-108254500D01*
X60754500Y-104277500D02*
X60755000Y-104277500D01*
X90395000Y-64255000D02*
G75*
G02*
X87295000Y-64255000I-1550000J0D01*
G01*
X87295000Y-64255000D02*
G75*
G02*
X90395000Y-64255000I1550000J0D01*
G01*
X201850000Y-71800000D02*
G75*
G02*
X198750000Y-71800000I-1550000J0D01*
G01*
X198750000Y-71800000D02*
G75*
G02*
X201850000Y-71800000I1550000J0D01*
G01*
X33800000Y-165300000D02*
X31800000Y-163300000D01*
X170850000Y-159800000D02*
G75*
G02*
X167750000Y-159800000I-1550000J0D01*
G01*
X167750000Y-159800000D02*
G75*
G02*
X170850000Y-159800000I1550000J0D01*
G01*
X190750000Y-108800000D02*
G75*
G02*
X193300000Y-106250000I2550000J0D01*
G01*
X157850000Y-128800000D02*
G75*
G02*
X154750000Y-128800000I-1550000J0D01*
G01*
X154750000Y-128800000D02*
G75*
G02*
X157850000Y-128800000I1550000J0D01*
G01*
X136822500Y-64255000D02*
X136822500Y-64254500D01*
X75800000Y-119300000D02*
X75800000Y-81300000D01*
X45850000Y-108800000D02*
G75*
G02*
X42750000Y-108800000I-1550000J0D01*
G01*
X42750000Y-108800000D02*
G75*
G02*
X45850000Y-108800000I1550000J0D01*
G01*
X53925000Y-108800000D02*
X58750000Y-108800000D01*
X88850000Y-145425000D02*
X88850000Y-149750000D01*
X88845000Y-104277500D02*
X88845500Y-104277500D01*
X56777500Y-64255000D02*
X56777500Y-64254500D01*
X115800000Y-121300000D02*
X117800000Y-119300000D01*
X115800000Y-35300000D02*
X117800000Y-37300000D01*
X180822500Y-48345000D02*
X180822500Y-48345500D01*
X45850000Y-91800000D02*
G75*
G02*
X42750000Y-91800000I-1550000J0D01*
G01*
X42750000Y-91800000D02*
G75*
G02*
X45850000Y-91800000I1550000J0D01*
G01*
X106850000Y-108800000D02*
G75*
G02*
X103750000Y-108800000I-1550000J0D01*
G01*
X103750000Y-108800000D02*
G75*
G02*
X106850000Y-108800000I1550000J0D01*
G01*
X203800000Y-79300000D02*
X165800000Y-79300000D01*
X82850000Y-71800000D02*
G75*
G02*
X79750000Y-71800000I-1550000J0D01*
G01*
X79750000Y-71800000D02*
G75*
G02*
X82850000Y-71800000I1550000J0D01*
G01*
X62305000Y-64255000D02*
G75*
G02*
X59205000Y-64255000I-1550000J0D01*
G01*
X59205000Y-64255000D02*
G75*
G02*
X62305000Y-64255000I1550000J0D01*
G01*
X95675000Y-136300000D02*
X91400000Y-136300000D01*
X185925000Y-136300000D02*
X190200000Y-136300000D01*
X88845000Y-140322500D02*
X88845500Y-140322500D01*
X88845000Y-52322500D02*
X88845500Y-52322500D01*
X62305000Y-48345000D02*
G75*
G02*
X59205000Y-48345000I-1550000J0D01*
G01*
X59205000Y-48345000D02*
G75*
G02*
X62305000Y-48345000I1550000J0D01*
G01*
X126850000Y-128800000D02*
G75*
G02*
X123750000Y-128800000I-1550000J0D01*
G01*
X123750000Y-128800000D02*
G75*
G02*
X126850000Y-128800000I1550000J0D01*
G01*
X105300000Y-94350000D02*
X105300000Y-106250000D01*
X194305000Y-48345000D02*
G75*
G02*
X191205000Y-48345000I-1550000J0D01*
G01*
X191205000Y-48345000D02*
G75*
G02*
X194305000Y-48345000I1550000J0D01*
G01*
X44850000Y-149750000D02*
G75*
G02*
X47400000Y-152300000I0J-2550000D01*
G01*
X135400000Y-136300000D02*
G75*
G02*
X132850000Y-138850000I-2550000J0D01*
G01*
X104750000Y-143175000D02*
G75*
G02*
X104750000Y-145425000I0J-1125000D01*
G01*
X88850000Y-143175000D02*
X88850000Y-138850000D01*
X201850000Y-159800000D02*
G75*
G02*
X198750000Y-159800000I-1550000J0D01*
G01*
X198750000Y-159800000D02*
G75*
G02*
X201850000Y-159800000I1550000J0D01*
G01*
X176300000Y-94350000D02*
X176300000Y-106250000D01*
X75800000Y-163300000D02*
X75800000Y-125300000D01*
X188777500Y-64255000D02*
X188777500Y-64254500D01*
X73800000Y-119300000D02*
X73800000Y-81300000D01*
X163800000Y-75300000D02*
X163800000Y-37300000D01*
X157850000Y-84800000D02*
G75*
G02*
X154750000Y-84800000I-1550000J0D01*
G01*
X154750000Y-84800000D02*
G75*
G02*
X157850000Y-84800000I1550000J0D01*
G01*
X56777500Y-108255000D02*
X56777500Y-108254500D01*
X100777500Y-92345000D02*
X100777500Y-92345500D01*
X121800000Y-35300000D02*
X119800000Y-37300000D01*
X132845000Y-60277500D02*
X132845500Y-60277500D01*
X170850000Y-115800000D02*
G75*
G02*
X167750000Y-115800000I-1550000J0D01*
G01*
X167750000Y-115800000D02*
G75*
G02*
X170850000Y-115800000I1550000J0D01*
G01*
X203800000Y-79300000D02*
X205800000Y-81300000D01*
X180822500Y-64255000D02*
X180822500Y-64254500D01*
X44845000Y-61705000D02*
G75*
G02*
X47395000Y-64255000I0J-2550000D01*
G01*
X82850000Y-40800000D02*
G75*
G02*
X79750000Y-40800000I-1550000J0D01*
G01*
X79750000Y-40800000D02*
G75*
G02*
X82850000Y-40800000I1550000J0D01*
G01*
X139675000Y-136300000D02*
G75*
G02*
X141925000Y-136300000I1125000J0D01*
G01*
X188777500Y-108255000D02*
X188777500Y-108254500D01*
X178850000Y-91800000D02*
G75*
G02*
X176300000Y-94350000I-2550000J0D01*
G01*
X121800000Y-77300000D02*
X119800000Y-75300000D01*
X134850000Y-91800000D02*
G75*
G02*
X132300000Y-94350000I-2550000J0D01*
G01*
X194300000Y-136300000D02*
G75*
G02*
X191200000Y-136300000I-1550000J0D01*
G01*
X191200000Y-136300000D02*
G75*
G02*
X194300000Y-136300000I1550000J0D01*
G01*
X165800000Y-123300000D02*
X163800000Y-125300000D01*
X104754500Y-52322500D02*
X104755000Y-52322500D01*
X104754500Y-140322500D02*
X104755000Y-140322500D01*
X177850000Y-91800000D02*
G75*
G02*
X174750000Y-91800000I-1550000J0D01*
G01*
X174750000Y-91800000D02*
G75*
G02*
X177850000Y-91800000I1550000J0D01*
G01*
X144777500Y-152255000D02*
X144777500Y-152254500D01*
X183675000Y-136300000D02*
G75*
G02*
X185925000Y-136300000I1125000J0D01*
G01*
X132850000Y-143175000D02*
X132850000Y-138850000D01*
X159800000Y-77300000D02*
X161800000Y-75300000D01*
X97925000Y-136300000D02*
X102200000Y-136300000D01*
X203800000Y-123300000D02*
X205800000Y-125300000D01*
X95675000Y-136300000D02*
G75*
G02*
X97925000Y-136300000I1125000J0D01*
G01*
X117800000Y-75300000D02*
X117800000Y-37300000D01*
X33800000Y-123300000D02*
X31800000Y-125300000D01*
X71800000Y-165300000D02*
X73800000Y-163300000D01*
X60754500Y-52322500D02*
X60755000Y-52322500D01*
X190205000Y-48345000D02*
X179395000Y-48345000D01*
X102750000Y-108800000D02*
G75*
G02*
X105300000Y-106250000I2550000J0D01*
G01*
X183675000Y-91800000D02*
X178850000Y-91800000D01*
X203800000Y-121300000D02*
X165800000Y-121300000D01*
X33800000Y-35300000D02*
X31800000Y-37300000D01*
X205800000Y-119300000D02*
X205800000Y-81300000D01*
X115800000Y-165300000D02*
X77800000Y-165300000D01*
X134400000Y-136300000D02*
G75*
G02*
X131300000Y-136300000I-1550000J0D01*
G01*
X131300000Y-136300000D02*
G75*
G02*
X134400000Y-136300000I1550000J0D01*
G01*
X146750000Y-108800000D02*
G75*
G02*
X149300000Y-106250000I2550000J0D01*
G01*
X88850000Y-149750000D02*
G75*
G02*
X91400000Y-152300000I0J-2550000D01*
G01*
X38850000Y-159800000D02*
G75*
G02*
X35750000Y-159800000I-1550000J0D01*
G01*
X35750000Y-159800000D02*
G75*
G02*
X38850000Y-159800000I1550000J0D01*
G01*
X58205000Y-48345000D02*
X47395000Y-48345000D01*
X69850000Y-40800000D02*
G75*
G02*
X66750000Y-40800000I-1550000J0D01*
G01*
X66750000Y-40800000D02*
G75*
G02*
X69850000Y-40800000I1550000J0D01*
G01*
X150305000Y-64255000D02*
G75*
G02*
X147205000Y-64255000I-1550000J0D01*
G01*
X147205000Y-64255000D02*
G75*
G02*
X150305000Y-64255000I1550000J0D01*
G01*
X177850000Y-108800000D02*
G75*
G02*
X174750000Y-108800000I-1550000J0D01*
G01*
X174750000Y-108800000D02*
G75*
G02*
X177850000Y-108800000I1550000J0D01*
G01*
M02*
