<?xml version="1.0" standalone="no"?>
 <!DOCTYPE svg PUBLIC "-//W3C//DTD SVG 1.1//EN" 
 "http://www.w3.org/Graphics/SVG/1.1/DTD/svg11.dtd"> 
<svg
  xmlns:svg="http://www.w3.org/2000/svg"
  xmlns="http://www.w3.org/2000/svg"
  xmlns:xlink="http://www.w3.org/1999/xlink"
  version="1.1"
  width="174.0408mm" height="130.0480mm" viewBox="0.0000 0.0000 174.0408 130.0480">
<title>SVG Image created as as5600_bracket-Edge_Cuts.svg date 2025/02/14 13:21:30 </title>
  <desc>Image generated by PCBNEW </desc>
<g style="fill:#000000; fill-opacity:1.0000;stroke:#000000; stroke-opacity:1.0000;
stroke-linecap:round; stroke-linejoin:round;"
 transform="translate(0 0) scale(1 1)">
</g>
<g style="fill:none; 
stroke:#000000; stroke-width:0.0500; stroke-opacity:1; 
stroke-linecap:round; stroke-linejoin:round;">
<path d="M160.9795 105.0475
L160.9800 105.0475
" />
<circle cx="101.0700" cy="13.0700" r="1.5500" /> 
<path d="M116.9795 105.0475
L116.9800 105.0475
" />
<circle cx="72.9750" cy="117.0250" r="1.5500" /> 
<circle cx="5.5250" cy="80.5250" r="1.5500" /> 
<path d="M28.9750 103.5750
L28.9750 107.9000
" />
<path d="M19.9000 56.5250
L15.0750 56.5250
" />
<path d="M25.0025 13.0700
L25.0025 13.0705
" />
<path d="M13.0700 15.6200
L13.0700 26.4300
" />
<path d="M151.9000 28.9800
L147.6200 28.9800
" />
<path d="M72.9800 26.4300 A2.5500 2.5500 0.0 0 0 70.4300 28.9800" />
<path d="M84.0250 42.0250
L46.0250 42.0250
" />
<path d="M130.0250 128.0250
L130.0250 90.0250
" />
<path d="M22.1500 101.0250 A1.1250 1.1250 0.0 0 0 19.9000 101.0250" />
<circle cx="13.0750" cy="117.0250" r="1.5500" /> 
<path d="M116.9750 110.1500 A1.1250 1.1250 0.0 0 0 116.9750 107.9000" />
<path d="M114.9750 56.5250 A2.5500 2.5500 0.0 0 0 117.5250 59.0750" />
<path d="M63.9000 28.9800
L59.6200 28.9800
" />
<path d="M128.0250 86.0250
L90.0250 86.0250
" />
<path d="M22.1500 56.5250
L26.9750 56.5250
" />
<path d="M40.0250 86.0250
L2.0250 86.0250
" />
<circle cx="49.5250" cy="124.5250" r="1.5500" /> 
<path d="M154.1500 28.9800
L158.4300 28.9800
" />
<path d="M90.0250 44.0250
L88.0250 46.0250
" />
<path d="M0.0250 128.0250
L0.0250 90.0250
" />
<circle cx="80.5250" cy="49.5250" r="1.5500" /> 
<path d="M40.0250 86.0250
L42.0250 84.0250
" />
<path d="M134.0250 86.0250
L132.0250 84.0250
" />
<path d="M56.5250 59.0750 A2.5500 2.5500 0.0 0 0 59.0750 56.5250" />
<circle cx="5.5250" cy="36.5250" r="1.5500" /> 
<path d="M40.0250 44.0250
L2.0250 44.0250
" />
<path d="M61.0475 13.0700
L61.0475 13.0705
" />
<circle cx="80.5250" cy="80.5250" r="1.5500" /> 
<path d="M172.0250 42.0250
L174.0250 40.0250
" />
<path d="M172.0250 0.0250
L174.0250 2.0250
" />
<path d="M61.0475 28.9800
L61.0475 28.9795
" />
<path d="M172.0250 42.0250
L134.0250 42.0250
" />
<path d="M128.0250 42.0250
L90.0250 42.0250
" />
<circle cx="100.5250" cy="56.5250" r="1.5500" /> 
<path d="M134.0250 130.0250
L132.0250 128.0250
" />
<circle cx="73.5250" cy="56.5250" r="1.5500" /> 
<path d="M114.4250 101.0250 A2.5500 2.5500 0.0 0 0 116.9750 103.5750" />
<path d="M12.5250 59.0750
L12.5250 70.9750
" />
<path d="M2.0250 86.0250
L0.0250 84.0250
" />
<path d="M84.0250 86.0250
L46.0250 86.0250
" />
<path d="M128.0250 130.0250
L90.0250 130.0250
" />
<path d="M69.0025 13.0700
L69.0025 13.0705
" />
<circle cx="93.5250" cy="124.5250" r="1.5500" /> 
<path d="M88.0250 84.0250
L88.0250 46.0250
" />
<circle cx="49.5250" cy="93.5250" r="1.5500" /> 
<path d="M145.0750 110.1500
L145.0750 114.4750
" />
<circle cx="145.0750" cy="117.0250" r="1.5500" /> 
<path d="M100.5250 59.0750
L100.5250 70.9750
" />
<circle cx="168.5250" cy="5.5250" r="1.5500" /> 
<path d="M110.1500 101.0250
L114.4250 101.0250
" />
<path d="M160.9750 110.1500 A1.1250 1.1250 0.0 0 0 160.9750 107.9000" />
<path d="M13.0700 15.6200 A2.5500 2.5500 0.0 0 0 15.6200 13.0700" />
<path d="M13.0700 25.0025
L13.0705 25.0025
" />
<path d="M128.0250 130.0250
L130.0250 128.0250
" />
<circle cx="80.5250" cy="5.5250" r="1.5500" /> 
<path d="M28.9795 25.0025
L28.9800 25.0025
" />
<path d="M13.0750 107.9000 A1.1250 1.1250 0.0 0 0 13.0750 110.1500" />
<path d="M72.9750 103.5750
L72.9750 107.9000
" />
<circle cx="101.0750" cy="117.0250" r="1.5500" /> 
<path d="M160.9800 26.4300
L160.9800 15.6200
" />
<path d="M56.5250 59.0750
L56.5250 70.9750
" />
<path d="M116.9750 110.1500
L116.9750 114.4750
" />
<path d="M13.0750 103.5750 A2.5500 2.5500 0.0 0 0 15.6250 101.0250" />
<path d="M101.0750 110.1500
L101.0750 114.4750
" />
<path d="M28.9795 105.0475
L28.9800 105.0475
" />
<path d="M46.0250 88.0250
L44.0250 90.0250
" />
<path d="M101.0700 17.0475
L101.0705 17.0475
" />
<path d="M72.9750 110.1500
L72.9750 114.4750
" />
<circle cx="13.0700" cy="28.9800" r="1.5500" /> 
<path d="M28.9795 113.0025
L28.9800 113.0025
" />
<path d="M116.9750 114.4750 A2.5500 2.5500 0.0 0 0 114.4250 117.0250" />
<path d="M22.1500 101.0250
L26.4250 101.0250
" />
<path d="M59.6200 28.9800 A2.5500 2.5500 0.0 0 0 57.0700 26.4300" />
<path d="M13.0700 17.0475
L13.0705 17.0475
" />
<path d="M13.0700 113.0025
L13.0705 113.0025
" />
<circle cx="93.5250" cy="49.5250" r="1.5500" /> 
<path d="M86.0250 128.0250
L86.0250 90.0250
" />
<path d="M28.9800 26.4300
L28.9800 15.6200
" />
<path d="M57.0700 113.0025
L57.0705 113.0025
" />
<circle cx="145.0700" cy="28.9800" r="1.5500" /> 
<path d="M28.9750 110.1500 A1.1250 1.1250 0.0 0 0 28.9750 107.9000" />
<path d="M107.9000 28.9800
L103.6200 28.9800
" />
<circle cx="116.9800" cy="13.0700" r="1.5500" /> 
<circle cx="80.5250" cy="36.5250" r="1.5500" /> 
<path d="M0.0250 84.0250
L0.0250 46.0250
" />
<path d="M28.9800 26.4300 A2.5500 2.5500 0.0 0 0 26.4300 28.9800" />
<circle cx="49.5250" cy="49.5250" r="1.5500" /> 
<circle cx="116.9750" cy="117.0250" r="1.5500" /> 
<circle cx="56.5250" cy="73.5250" r="1.5500" /> 
<circle cx="28.9750" cy="101.0250" r="1.5500" /> 
<path d="M57.0750 103.5750 A2.5500 2.5500 0.0 0 0 59.6250 101.0250" />
<path d="M44.0250 40.0250
L44.0250 2.0250
" />
<path d="M160.9795 17.0475
L160.9800 17.0475
" />
<path d="M145.0700 105.0475
L145.0705 105.0475
" />
<path d="M160.9795 113.0025
L160.9800 113.0025
" />
<path d="M63.9000 28.9800 A1.1250 1.1250 0.0 0 0 66.1500 28.9800" />
<path d="M84.0250 42.0250
L86.0250 40.0250
" />
<path d="M172.0250 88.0250
L134.0250 88.0250
" />
<path d="M151.9000 101.0250
L147.6250 101.0250
" />
<path d="M114.4300 13.0700 A2.5500 2.5500 0.0 0 0 116.9800 15.6200" />
<path d="M128.0250 88.0250
L130.0250 90.0250
" />
<circle cx="100.5250" cy="73.5250" r="1.5500" /> 
<path d="M90.0250 86.0250
L88.0250 84.0250
" />
<path d="M46.0250 130.0250
L44.0250 128.0250
" />
<path d="M154.1500 73.5250
L158.9750 73.5250
" />
<path d="M114.4250 117.0250
L103.6250 117.0250
" />
<circle cx="57.0750" cy="101.0250" r="1.5500" /> 
<path d="M134.0250 44.0250
L132.0250 46.0250
" />
<circle cx="80.5250" cy="93.5250" r="1.5500" /> 
<path d="M66.1500 56.5250
L70.9750 56.5250
" />
<circle cx="49.5250" cy="80.5250" r="1.5500" /> 
<path d="M117.5250 59.0750
L117.5250 70.9750
" />
<path d="M84.0250 0.0250
L46.0250 0.0250
" />
<path d="M145.0750 107.9000 A1.1250 1.1250 0.0 0 0 145.0750 110.1500" />
<path d="M66.1500 28.9800
L70.4300 28.9800
" />
<path d="M40.0250 0.0250
L2.0250 0.0250
" />
<circle cx="137.5250" cy="93.5250" r="1.5500" /> 
<path d="M110.1500 56.5250
L114.9750 56.5250
" />
<path d="M46.0250 86.0250
L44.0250 84.0250
" />
<circle cx="101.0700" cy="28.9800" r="1.5500" /> 
<circle cx="93.5250" cy="5.5250" r="1.5500" /> 
<circle cx="93.5250" cy="36.5250" r="1.5500" /> 
<path d="M147.0750 73.5250 A2.5500 2.5500 0.0 0 0 144.5250 70.9750" />
<circle cx="124.5250" cy="36.5250" r="1.5500" /> 
<path d="M151.9000 28.9800 A1.1250 1.1250 0.0 0 0 154.1500 28.9800" />
<path d="M154.1500 56.5250
L158.9750 56.5250
" />
<circle cx="36.5250" cy="49.5250" r="1.5500" /> 
<path d="M107.9000 28.9800 A1.1250 1.1250 0.0 0 0 110.1500 28.9800" />
<path d="M130.0250 40.0250
L130.0250 2.0250
" />
<path d="M160.9800 26.4300 A2.5500 2.5500 0.0 0 0 158.4300 28.9800" />
<path d="M86.0250 84.0250
L86.0250 46.0250
" />
<path d="M46.0250 42.0250
L44.0250 40.0250
" />
<path d="M84.0250 44.0250
L46.0250 44.0250
" />
<circle cx="168.5250" cy="80.5250" r="1.5500" /> 
<path d="M172.0250 130.0250
L134.0250 130.0250
" />
<circle cx="137.5250" cy="5.5250" r="1.5500" /> 
<path d="M107.9000 101.0250
L103.6250 101.0250
" />
<circle cx="161.5250" cy="56.5250" r="1.5500" /> 
<path d="M57.0700 15.6200
L57.0700 26.4300
" />
<path d="M116.9795 113.0025
L116.9800 113.0025
" />
<path d="M26.4250 101.0250 A2.5500 2.5500 0.0 0 0 28.9750 103.5750" />
<circle cx="5.5250" cy="5.5250" r="1.5500" /> 
<path d="M59.0750 73.5250 A2.5500 2.5500 0.0 0 0 56.5250 70.9750" />
<path d="M145.0700 17.0475
L145.0705 17.0475
" />
<path d="M116.9800 26.4300
L116.9800 15.6200
" />
<circle cx="72.9800" cy="28.9800" r="1.5500" /> 
<path d="M40.0250 42.0250
L2.0250 42.0250
" />
<path d="M63.9000 56.5250
L59.0750 56.5250
" />
<path d="M42.0250 128.0250
L42.0250 90.0250
" />
<circle cx="137.5250" cy="49.5250" r="1.5500" /> 
<circle cx="116.9750" cy="101.0250" r="1.5500" /> 
<circle cx="124.5250" cy="80.5250" r="1.5500" /> 
<path d="M134.0250 42.0250
L132.0250 40.0250
" />
<circle cx="36.5250" cy="80.5250" r="1.5500" /> 
<path d="M40.0250 88.0250
L42.0250 90.0250
" />
<path d="M128.0250 0.0250
L130.0250 2.0250
" />
<circle cx="124.5250" cy="124.5250" r="1.5500" /> 
<path d="M145.0700 25.0025
L145.0705 25.0025
" />
<path d="M128.0250 44.0250
L130.0250 46.0250
" />
<path d="M147.6200 28.9800 A2.5500 2.5500 0.0 0 0 145.0700 26.4300" />
<path d="M107.9000 73.5250 A1.1250 1.1250 0.0 0 0 110.1500 73.5250" />
<circle cx="57.0750" cy="117.0250" r="1.5500" /> 
<circle cx="28.9750" cy="117.0250" r="1.5500" /> 
<path d="M134.0250 0.0250
L132.0250 2.0250
" />
<path d="M128.0250 86.0250
L130.0250 84.0250
" />
<path d="M151.9000 73.5250 A1.1250 1.1250 0.0 0 0 154.1500 73.5250" />
<path d="M103.6250 117.0250 A2.5500 2.5500 0.0 0 0 101.0750 114.4750" />
<path d="M101.0700 15.6200 A2.5500 2.5500 0.0 0 0 103.6200 13.0700" />
<path d="M26.4250 117.0250
L15.6250 117.0250
" />
<path d="M84.0250 44.0250
L86.0250 46.0250
" />
<path d="M12.5250 59.0750 A2.5500 2.5500 0.0 0 0 15.0750 56.5250" />
<circle cx="13.0700" cy="13.0700" r="1.5500" /> 
<circle cx="93.5250" cy="80.5250" r="1.5500" /> 
<path d="M145.0750 107.9000
L145.0750 103.5750
" />
<circle cx="137.5250" cy="36.5250" r="1.5500" /> 
<path d="M26.9750 56.5250 A2.5500 2.5500 0.0 0 0 29.5250 59.0750" />
<path d="M154.1500 56.5250 A1.1250 1.1250 0.0 0 0 151.9000 56.5250" />
<circle cx="145.0750" cy="101.0250" r="1.5500" /> 
<path d="M172.0250 130.0250
L174.0250 128.0250
" />
<path d="M72.9795 113.0025
L72.9800 113.0025
" />
<path d="M116.9795 17.0475
L116.9800 17.0475
" />
<path d="M46.0250 0.0250
L44.0250 2.0250
" />
<path d="M145.0750 103.5750 A2.5500 2.5500 0.0 0 0 147.6250 101.0250" />
<path d="M19.9000 73.5250
L15.0750 73.5250
" />
<path d="M103.0750 73.5250 A2.5500 2.5500 0.0 0 0 100.5250 70.9750" />
<circle cx="36.5250" cy="124.5250" r="1.5500" /> 
<circle cx="72.9750" cy="101.0250" r="1.5500" /> 
<path d="M40.0250 88.0250
L2.0250 88.0250
" />
<path d="M101.0700 105.0475
L101.0705 105.0475
" />
<path d="M172.0250 86.0250
L174.0250 84.0250
" />
<path d="M158.4250 101.0250 A2.5500 2.5500 0.0 0 0 160.9750 103.5750" />
<circle cx="161.5250" cy="73.5250" r="1.5500" /> 
<path d="M132.0250 128.0250
L132.0250 90.0250
" />
<path d="M63.9000 73.5250 A1.1250 1.1250 0.0 0 0 66.1500 73.5250" />
<path d="M158.9750 56.5250 A2.5500 2.5500 0.0 0 0 161.5250 59.0750" />
<circle cx="72.9800" cy="13.0700" r="1.5500" /> 
<path d="M130.0250 84.0250
L130.0250 46.0250
" />
<circle cx="5.5250" cy="49.5250" r="1.5500" /> 
<path d="M116.9800 26.4300 A2.5500 2.5500 0.0 0 0 114.4300 28.9800" />
<path d="M128.0250 44.0250
L90.0250 44.0250
" />
<path d="M70.4250 101.0250 A2.5500 2.5500 0.0 0 0 72.9750 103.5750" />
<path d="M90.0250 130.0250
L88.0250 128.0250
" />
<path d="M105.0475 13.0700
L105.0475 13.0705
" />
<path d="M28.9750 114.4750 A2.5500 2.5500 0.0 0 0 26.4250 117.0250" />
<path d="M84.0250 88.0250
L46.0250 88.0250
" />
<circle cx="168.5250" cy="49.5250" r="1.5500" /> 
<path d="M114.4300 13.0700
L103.6200 13.0700
" />
<path d="M70.9750 56.5250 A2.5500 2.5500 0.0 0 0 73.5250 59.0750" />
<path d="M40.0250 130.0250
L2.0250 130.0250
" />
<circle cx="13.0750" cy="101.0250" r="1.5500" /> 
<path d="M116.9795 25.0025
L116.9800 25.0025
" />
<path d="M88.0250 40.0250
L88.0250 2.0250
" />
<path d="M101.0700 15.6200
L101.0700 26.4300
" />
<path d="M26.4300 13.0700 A2.5500 2.5500 0.0 0 0 28.9800 15.6200" />
<circle cx="168.5250" cy="93.5250" r="1.5500" /> 
<path d="M0.0250 40.0250
L0.0250 2.0250
" />
<circle cx="160.9800" cy="28.9800" r="1.5500" /> 
<circle cx="56.5250" cy="56.5250" r="1.5500" /> 
<path d="M2.0250 44.0250
L0.0250 46.0250
" />
<path d="M72.9795 25.0025
L72.9800 25.0025
" />
<path d="M107.9000 56.5250
L103.0750 56.5250
" />
<path d="M19.9000 73.5250 A1.1250 1.1250 0.0 0 0 22.1500 73.5250" />
<circle cx="29.5250" cy="73.5250" r="1.5500" /> 
<path d="M22.1500 28.9800
L26.4300 28.9800
" />
<path d="M145.0700 15.6200
L145.0700 26.4300
" />
<path d="M174.0250 128.0250
L174.0250 90.0250
" />
<path d="M158.4300 13.0700 A2.5500 2.5500 0.0 0 0 160.9800 15.6200" />
<circle cx="117.5250" cy="73.5250" r="1.5500" /> 
<circle cx="36.5250" cy="93.5250" r="1.5500" /> 
<path d="M40.0250 44.0250
L42.0250 46.0250
" />
<circle cx="36.5250" cy="36.5250" r="1.5500" /> 
<circle cx="5.5250" cy="93.5250" r="1.5500" /> 
<path d="M19.9000 28.9800 A1.1250 1.1250 0.0 0 0 22.1500 28.9800" />
<path d="M57.0750 107.9000 A1.1250 1.1250 0.0 0 0 57.0750 110.1500" />
<path d="M132.0250 84.0250
L132.0250 46.0250
" />
<circle cx="80.5250" cy="124.5250" r="1.5500" /> 
<path d="M84.0250 88.0250
L86.0250 90.0250
" />
<path d="M69.0025 28.9800
L69.0025 28.9795
" />
<path d="M66.1500 56.5250 A1.1250 1.1250 0.0 0 0 63.9000 56.5250" />
<path d="M29.5250 70.9750 A2.5500 2.5500 0.0 0 0 26.9750 73.5250" />
<path d="M19.9000 101.0250
L15.6250 101.0250
" />
<path d="M22.1500 56.5250 A1.1250 1.1250 0.0 0 0 19.9000 56.5250" />
<path d="M13.0750 110.1500
L13.0750 114.4750
" />
<path d="M19.9000 28.9800
L15.6200 28.9800
" />
<path d="M101.0700 113.0025
L101.0705 113.0025
" />
<path d="M160.9750 110.1500
L160.9750 114.4750
" />
<path d="M160.9750 103.5750
L160.9750 107.9000
" />
<path d="M110.1500 28.9800
L114.4300 28.9800
" />
<path d="M57.0700 15.6200 A2.5500 2.5500 0.0 0 0 59.6200 13.0700" />
<path d="M147.6250 117.0250 A2.5500 2.5500 0.0 0 0 145.0750 114.4750" />
<circle cx="117.5250" cy="56.5250" r="1.5500" /> 
<path d="M72.9750 114.4750 A2.5500 2.5500 0.0 0 0 70.4250 117.0250" />
<path d="M70.4300 13.0700
L59.6200 13.0700
" />
<path d="M128.0250 0.0250
L90.0250 0.0250
" />
<path d="M160.9795 25.0025
L160.9800 25.0025
" />
<path d="M84.0250 130.0250
L86.0250 128.0250
" />
<path d="M13.0700 105.0475
L13.0705 105.0475
" />
<path d="M161.5250 59.0750
L161.5250 70.9750
" />
<path d="M2.0250 42.0250
L0.0250 40.0250
" />
<path d="M113.0025 13.0700
L113.0025 13.0705
" />
<path d="M17.0475 13.0700
L17.0475 13.0705
" />
<path d="M145.0700 113.0025
L145.0705 113.0025
" />
<path d="M172.0250 0.0250
L134.0250 0.0250
" />
<path d="M113.0025 28.9800
L113.0025 28.9795
" />
<path d="M158.4250 117.0250
L147.6250 117.0250
" />
<circle cx="57.0700" cy="13.0700" r="1.5500" /> 
<path d="M40.0250 0.0250
L42.0250 2.0250
" />
<path d="M160.9750 114.4750 A2.5500 2.5500 0.0 0 0 158.4250 117.0250" />
<path d="M13.0750 107.9000
L13.0750 103.5750
" />
<circle cx="29.5250" cy="56.5250" r="1.5500" /> 
<path d="M88.0250 128.0250
L88.0250 90.0250
" />
<path d="M70.4300 13.0700 A2.5500 2.5500 0.0 0 0 72.9800 15.6200" />
<path d="M110.1500 56.5250 A1.1250 1.1250 0.0 0 0 107.9000 56.5250" />
<path d="M57.0700 25.0025
L57.0705 25.0025
" />
<path d="M70.4250 117.0250
L59.6250 117.0250
" />
<path d="M101.0750 107.9000 A1.1250 1.1250 0.0 0 0 101.0750 110.1500" />
<path d="M103.6200 28.9800 A2.5500 2.5500 0.0 0 0 101.0700 26.4300" />
<path d="M66.1500 73.5250
L70.9750 73.5250
" />
<path d="M15.0750 73.5250 A2.5500 2.5500 0.0 0 0 12.5250 70.9750" />
<path d="M29.5250 59.0750
L29.5250 70.9750
" />
<path d="M90.0250 88.0250
L88.0250 90.0250
" />
<path d="M63.9000 73.5250
L59.0750 73.5250
" />
<path d="M151.9000 73.5250
L147.0750 73.5250
" />
<circle cx="160.9750" cy="117.0250" r="1.5500" /> 
<path d="M17.0475 28.9800
L17.0475 28.9795
" />
<path d="M145.0700 15.6200 A2.5500 2.5500 0.0 0 0 147.6200 13.0700" />
<path d="M128.0250 88.0250
L90.0250 88.0250
" />
<path d="M116.9750 103.5750
L116.9750 107.9000
" />
<path d="M72.9800 26.4300
L72.9800 15.6200
" />
<path d="M107.9000 73.5250
L103.0750 73.5250
" />
<circle cx="124.5250" cy="5.5250" r="1.5500" /> 
<path d="M42.0250 40.0250
L42.0250 2.0250
" />
<path d="M110.1500 73.5250
L114.9750 73.5250
" />
<circle cx="145.0700" cy="13.0700" r="1.5500" /> 
<path d="M46.0250 44.0250
L44.0250 46.0250
" />
<path d="M157.0025 13.0700
L157.0025 13.0705
" />
<path d="M28.9750 110.1500
L28.9750 114.4750
" />
<path d="M40.0250 42.0250
L42.0250 40.0250
" />
<path d="M105.0475 101.0700
L105.0475 101.0705
" />
<path d="M174.0250 40.0250
L174.0250 2.0250
" />
<circle cx="57.0700" cy="28.9800" r="1.5500" /> 
<circle cx="168.5250" cy="36.5250" r="1.5500" /> 
<path d="M2.0250 130.0250
L0.0250 128.0250
" />
<circle cx="137.5250" cy="124.5250" r="1.5500" /> 
<path d="M161.5250 70.9750 A2.5500 2.5500 0.0 0 0 158.9750 73.5250" />
<circle cx="124.5250" cy="93.5250" r="1.5500" /> 
<path d="M105.0475 28.9800
L105.0475 28.9795
" />
<path d="M44.0250 84.0250
L44.0250 46.0250
" />
<circle cx="12.5250" cy="73.5250" r="1.5500" /> 
<path d="M22.1500 73.5250
L26.9750 73.5250
" />
<path d="M57.0750 110.1500
L57.0750 114.4750
" />
<path d="M25.0025 28.9800
L25.0025 28.9795
" />
<path d="M84.0250 86.0250
L86.0250 84.0250
" />
<path d="M84.0250 0.0250
L86.0250 2.0250
" />
<path d="M149.0475 13.0700
L149.0475 13.0705
" />
<circle cx="12.5250" cy="56.5250" r="1.5500" /> 
<circle cx="73.5250" cy="73.5250" r="1.5500" /> 
<path d="M172.0250 44.0250
L134.0250 44.0250
" />
<circle cx="49.5250" cy="36.5250" r="1.5500" /> 
<circle cx="28.9800" cy="28.9800" r="1.5500" /> 
<path d="M63.9000 101.0250
L59.6250 101.0250
" />
<path d="M154.1500 101.0250
L158.4250 101.0250
" />
<path d="M57.0700 105.0475
L57.0705 105.0475
" />
<path d="M57.0700 17.0475
L57.0705 17.0475
" />
<circle cx="28.9800" cy="13.0700" r="1.5500" /> 
<circle cx="93.5250" cy="93.5250" r="1.5500" /> 
<path d="M73.5250 59.0750
L73.5250 70.9750
" />
<circle cx="160.9800" cy="13.0700" r="1.5500" /> 
<path d="M15.6250 117.0250 A2.5500 2.5500 0.0 0 0 13.0750 114.4750" />
<path d="M101.0750 103.5750 A2.5500 2.5500 0.0 0 0 103.6250 101.0250" />
<path d="M72.9750 110.1500 A1.1250 1.1250 0.0 0 0 72.9750 107.9000" />
<path d="M57.0750 107.9000
L57.0750 103.5750
" />
<circle cx="168.5250" cy="124.5250" r="1.5500" /> 
<path d="M144.5250 59.0750
L144.5250 70.9750
" />
<path d="M44.0250 128.0250
L44.0250 90.0250
" />
<path d="M157.0025 28.9800
L157.0025 28.9795
" />
<path d="M42.0250 84.0250
L42.0250 46.0250
" />
<path d="M132.0250 40.0250
L132.0250 2.0250
" />
<circle cx="124.5250" cy="49.5250" r="1.5500" /> 
<path d="M90.0250 0.0250
L88.0250 2.0250
" />
<path d="M101.0700 25.0025
L101.0705 25.0025
" />
<circle cx="137.5250" cy="80.5250" r="1.5500" /> 
<path d="M172.0250 44.0250
L174.0250 46.0250
" />
<path d="M149.0475 28.9800
L149.0475 28.9795
" />
<path d="M15.6200 28.9800 A2.5500 2.5500 0.0 0 0 13.0700 26.4300" />
<circle cx="49.5250" cy="5.5250" r="1.5500" /> 
<path d="M110.1500 101.0250 A1.1250 1.1250 0.0 0 0 107.9000 101.0250" />
<path d="M144.5250 59.0750 A2.5500 2.5500 0.0 0 0 147.0750 56.5250" />
<path d="M90.0250 42.0250
L88.0250 40.0250
" />
<path d="M100.5250 59.0750 A2.5500 2.5500 0.0 0 0 103.0750 56.5250" />
<circle cx="160.9750" cy="101.0250" r="1.5500" /> 
<path d="M134.0250 88.0250
L132.0250 90.0250
" />
<path d="M72.9795 17.0475
L72.9800 17.0475
" />
<path d="M72.9795 105.0475
L72.9800 105.0475
" />
<circle cx="144.5250" cy="56.5250" r="1.5500" /> 
<path d="M154.1500 101.0250 A1.1250 1.1250 0.0 0 0 151.9000 101.0250" />
<path d="M101.0750 107.9000
L101.0750 103.5750
" />
<path d="M128.0250 42.0250
L130.0250 40.0250
" />
<path d="M66.1500 101.0250
L70.4250 101.0250
" />
<path d="M172.0250 88.0250
L174.0250 90.0250
" />
<path d="M66.1500 101.0250 A1.1250 1.1250 0.0 0 0 63.9000 101.0250" />
<path d="M86.0250 40.0250
L86.0250 2.0250
" />
<path d="M2.0250 88.0250
L0.0250 90.0250
" />
<path d="M40.0250 130.0250
L42.0250 128.0250
" />
<path d="M28.9795 17.0475
L28.9800 17.0475
" />
<path d="M158.4300 13.0700
L147.6200 13.0700
" />
<path d="M73.5250 70.9750 A2.5500 2.5500 0.0 0 0 70.9750 73.5250" />
<path d="M151.9000 56.5250
L147.0750 56.5250
" />
<path d="M172.0250 86.0250
L134.0250 86.0250
" />
<path d="M2.0250 0.0250
L0.0250 2.0250
" />
<path d="M174.0250 84.0250
L174.0250 46.0250
" />
<path d="M84.0250 130.0250
L46.0250 130.0250
" />
<circle cx="101.0750" cy="101.0250" r="1.5500" /> 
<path d="M117.5250 70.9750 A2.5500 2.5500 0.0 0 0 114.9750 73.5250" />
<path d="M59.6250 117.0250 A2.5500 2.5500 0.0 0 0 57.0750 114.4750" />
<circle cx="5.5250" cy="124.5250" r="1.5500" /> 
<path d="M26.4300 13.0700
L15.6200 13.0700
" />
<circle cx="36.5250" cy="5.5250" r="1.5500" /> 
<circle cx="116.9800" cy="28.9800" r="1.5500" /> 
<circle cx="144.5250" cy="73.5250" r="1.5500" /> 
<path d="M160.9795 105.0475
L160.9800 105.0475
" />
<circle cx="101.0700" cy="13.0700" r="1.5500" /> 
<path d="M116.9795 105.0475
L116.9800 105.0475
" />
<circle cx="72.9750" cy="117.0250" r="1.5500" /> 
<circle cx="5.5250" cy="80.5250" r="1.5500" /> 
<path d="M28.9750 103.5750
L28.9750 107.9000
" />
<path d="M19.9000 56.5250
L15.0750 56.5250
" />
<path d="M25.0025 13.0700
L25.0025 13.0705
" />
<path d="M13.0700 15.6200
L13.0700 26.4300
" />
<path d="M151.9000 28.9800
L147.6200 28.9800
" />
<path d="M72.9800 26.4300 A2.5500 2.5500 0.0 0 0 70.4300 28.9800" />
<path d="M84.0250 42.0250
L46.0250 42.0250
" />
<path d="M130.0250 128.0250
L130.0250 90.0250
" />
<path d="M22.1500 101.0250 A1.1250 1.1250 0.0 0 0 19.9000 101.0250" />
<circle cx="13.0750" cy="117.0250" r="1.5500" /> 
<path d="M116.9750 110.1500 A1.1250 1.1250 0.0 0 0 116.9750 107.9000" />
<path d="M114.9750 56.5250 A2.5500 2.5500 0.0 0 0 117.5250 59.0750" />
<path d="M63.9000 28.9800
L59.6200 28.9800
" />
<path d="M128.0250 86.0250
L90.0250 86.0250
" />
<path d="M22.1500 56.5250
L26.9750 56.5250
" />
<path d="M40.0250 86.0250
L2.0250 86.0250
" />
<circle cx="49.5250" cy="124.5250" r="1.5500" /> 
<path d="M154.1500 28.9800
L158.4300 28.9800
" />
<path d="M90.0250 44.0250
L88.0250 46.0250
" />
<path d="M0.0250 128.0250
L0.0250 90.0250
" />
<circle cx="80.5250" cy="49.5250" r="1.5500" /> 
<path d="M40.0250 86.0250
L42.0250 84.0250
" />
<path d="M134.0250 86.0250
L132.0250 84.0250
" />
<path d="M56.5250 59.0750 A2.5500 2.5500 0.0 0 0 59.0750 56.5250" />
<circle cx="5.5250" cy="36.5250" r="1.5500" /> 
<path d="M40.0250 44.0250
L2.0250 44.0250
" />
<path d="M61.0475 13.0700
L61.0475 13.0705
" />
<circle cx="80.5250" cy="80.5250" r="1.5500" /> 
<path d="M172.0250 42.0250
L174.0250 40.0250
" />
<path d="M172.0250 0.0250
L174.0250 2.0250
" />
<path d="M61.0475 28.9800
L61.0475 28.9795
" />
<path d="M172.0250 42.0250
L134.0250 42.0250
" />
<path d="M128.0250 42.0250
L90.0250 42.0250
" />
<circle cx="100.5250" cy="56.5250" r="1.5500" /> 
<path d="M134.0250 130.0250
L132.0250 128.0250
" />
<circle cx="73.5250" cy="56.5250" r="1.5500" /> 
<path d="M114.4250 101.0250 A2.5500 2.5500 0.0 0 0 116.9750 103.5750" />
<path d="M12.5250 59.0750
L12.5250 70.9750
" />
<path d="M2.0250 86.0250
L0.0250 84.0250
" />
<path d="M84.0250 86.0250
L46.0250 86.0250
" />
<path d="M128.0250 130.0250
L90.0250 130.0250
" />
<path d="M69.0025 13.0700
L69.0025 13.0705
" />
<circle cx="93.5250" cy="124.5250" r="1.5500" /> 
<path d="M88.0250 84.0250
L88.0250 46.0250
" />
<circle cx="49.5250" cy="93.5250" r="1.5500" /> 
<path d="M145.0750 110.1500
L145.0750 114.4750
" />
<circle cx="145.0750" cy="117.0250" r="1.5500" /> 
<path d="M100.5250 59.0750
L100.5250 70.9750
" />
<circle cx="168.5250" cy="5.5250" r="1.5500" /> 
<path d="M110.1500 101.0250
L114.4250 101.0250
" />
<path d="M160.9750 110.1500 A1.1250 1.1250 0.0 0 0 160.9750 107.9000" />
<path d="M13.0700 15.6200 A2.5500 2.5500 0.0 0 0 15.6200 13.0700" />
<path d="M13.0700 25.0025
L13.0705 25.0025
" />
<path d="M128.0250 130.0250
L130.0250 128.0250
" />
<circle cx="80.5250" cy="5.5250" r="1.5500" /> 
<path d="M28.9795 25.0025
L28.9800 25.0025
" />
<path d="M13.0750 107.9000 A1.1250 1.1250 0.0 0 0 13.0750 110.1500" />
<path d="M72.9750 103.5750
L72.9750 107.9000
" />
<circle cx="101.0750" cy="117.0250" r="1.5500" /> 
<path d="M160.9800 26.4300
L160.9800 15.6200
" />
<path d="M56.5250 59.0750
L56.5250 70.9750
" />
<path d="M116.9750 110.1500
L116.9750 114.4750
" />
<path d="M13.0750 103.5750 A2.5500 2.5500 0.0 0 0 15.6250 101.0250" />
<path d="M101.0750 110.1500
L101.0750 114.4750
" />
<path d="M28.9795 105.0475
L28.9800 105.0475
" />
<path d="M46.0250 88.0250
L44.0250 90.0250
" />
<path d="M101.0700 17.0475
L101.0705 17.0475
" />
<path d="M72.9750 110.1500
L72.9750 114.4750
" />
<circle cx="13.0700" cy="28.9800" r="1.5500" /> 
<path d="M28.9795 113.0025
L28.9800 113.0025
" />
<path d="M116.9750 114.4750 A2.5500 2.5500 0.0 0 0 114.4250 117.0250" />
<path d="M22.1500 101.0250
L26.4250 101.0250
" />
<path d="M59.6200 28.9800 A2.5500 2.5500 0.0 0 0 57.0700 26.4300" />
<path d="M13.0700 17.0475
L13.0705 17.0475
" />
<path d="M13.0700 113.0025
L13.0705 113.0025
" />
<circle cx="93.5250" cy="49.5250" r="1.5500" /> 
<path d="M86.0250 128.0250
L86.0250 90.0250
" />
<path d="M28.9800 26.4300
L28.9800 15.6200
" />
<path d="M57.0700 113.0025
L57.0705 113.0025
" />
<circle cx="145.0700" cy="28.9800" r="1.5500" /> 
<path d="M28.9750 110.1500 A1.1250 1.1250 0.0 0 0 28.9750 107.9000" />
<path d="M107.9000 28.9800
L103.6200 28.9800
" />
<circle cx="116.9800" cy="13.0700" r="1.5500" /> 
<circle cx="80.5250" cy="36.5250" r="1.5500" /> 
<path d="M0.0250 84.0250
L0.0250 46.0250
" />
<path d="M28.9800 26.4300 A2.5500 2.5500 0.0 0 0 26.4300 28.9800" />
<circle cx="49.5250" cy="49.5250" r="1.5500" /> 
<circle cx="116.9750" cy="117.0250" r="1.5500" /> 
<circle cx="56.5250" cy="73.5250" r="1.5500" /> 
<circle cx="28.9750" cy="101.0250" r="1.5500" /> 
<path d="M57.0750 103.5750 A2.5500 2.5500 0.0 0 0 59.6250 101.0250" />
<path d="M44.0250 40.0250
L44.0250 2.0250
" />
<path d="M160.9795 17.0475
L160.9800 17.0475
" />
<path d="M145.0700 105.0475
L145.0705 105.0475
" />
<path d="M160.9795 113.0025
L160.9800 113.0025
" />
<path d="M63.9000 28.9800 A1.1250 1.1250 0.0 0 0 66.1500 28.9800" />
<path d="M84.0250 42.0250
L86.0250 40.0250
" />
<path d="M172.0250 88.0250
L134.0250 88.0250
" />
<path d="M151.9000 101.0250
L147.6250 101.0250
" />
<path d="M114.4300 13.0700 A2.5500 2.5500 0.0 0 0 116.9800 15.6200" />
<path d="M128.0250 88.0250
L130.0250 90.0250
" />
<circle cx="100.5250" cy="73.5250" r="1.5500" /> 
<path d="M90.0250 86.0250
L88.0250 84.0250
" />
<path d="M46.0250 130.0250
L44.0250 128.0250
" />
<path d="M154.1500 73.5250
L158.9750 73.5250
" />
<path d="M114.4250 117.0250
L103.6250 117.0250
" />
<circle cx="57.0750" cy="101.0250" r="1.5500" /> 
<path d="M134.0250 44.0250
L132.0250 46.0250
" />
<circle cx="80.5250" cy="93.5250" r="1.5500" /> 
<path d="M66.1500 56.5250
L70.9750 56.5250
" />
<circle cx="49.5250" cy="80.5250" r="1.5500" /> 
<path d="M117.5250 59.0750
L117.5250 70.9750
" />
<path d="M84.0250 0.0250
L46.0250 0.0250
" />
<path d="M145.0750 107.9000 A1.1250 1.1250 0.0 0 0 145.0750 110.1500" />
<path d="M66.1500 28.9800
L70.4300 28.9800
" />
<path d="M40.0250 0.0250
L2.0250 0.0250
" />
<circle cx="137.5250" cy="93.5250" r="1.5500" /> 
<path d="M110.1500 56.5250
L114.9750 56.5250
" />
<path d="M46.0250 86.0250
L44.0250 84.0250
" />
<circle cx="101.0700" cy="28.9800" r="1.5500" /> 
<circle cx="93.5250" cy="5.5250" r="1.5500" /> 
<circle cx="93.5250" cy="36.5250" r="1.5500" /> 
<path d="M147.0750 73.5250 A2.5500 2.5500 0.0 0 0 144.5250 70.9750" />
<circle cx="124.5250" cy="36.5250" r="1.5500" /> 
<path d="M151.9000 28.9800 A1.1250 1.1250 0.0 0 0 154.1500 28.9800" />
<path d="M154.1500 56.5250
L158.9750 56.5250
" />
<circle cx="36.5250" cy="49.5250" r="1.5500" /> 
<path d="M107.9000 28.9800 A1.1250 1.1250 0.0 0 0 110.1500 28.9800" />
<path d="M130.0250 40.0250
L130.0250 2.0250
" />
<path d="M160.9800 26.4300 A2.5500 2.5500 0.0 0 0 158.4300 28.9800" />
<path d="M86.0250 84.0250
L86.0250 46.0250
" />
<path d="M46.0250 42.0250
L44.0250 40.0250
" />
<path d="M84.0250 44.0250
L46.0250 44.0250
" />
<circle cx="168.5250" cy="80.5250" r="1.5500" /> 
<path d="M172.0250 130.0250
L134.0250 130.0250
" />
<circle cx="137.5250" cy="5.5250" r="1.5500" /> 
<path d="M107.9000 101.0250
L103.6250 101.0250
" />
<circle cx="161.5250" cy="56.5250" r="1.5500" /> 
<path d="M57.0700 15.6200
L57.0700 26.4300
" />
<path d="M116.9795 113.0025
L116.9800 113.0025
" />
<path d="M26.4250 101.0250 A2.5500 2.5500 0.0 0 0 28.9750 103.5750" />
<circle cx="5.5250" cy="5.5250" r="1.5500" /> 
<path d="M59.0750 73.5250 A2.5500 2.5500 0.0 0 0 56.5250 70.9750" />
<path d="M145.0700 17.0475
L145.0705 17.0475
" />
<path d="M116.9800 26.4300
L116.9800 15.6200
" />
<circle cx="72.9800" cy="28.9800" r="1.5500" /> 
<path d="M40.0250 42.0250
L2.0250 42.0250
" />
<path d="M63.9000 56.5250
L59.0750 56.5250
" />
<path d="M42.0250 128.0250
L42.0250 90.0250
" />
<circle cx="137.5250" cy="49.5250" r="1.5500" /> 
<circle cx="116.9750" cy="101.0250" r="1.5500" /> 
<circle cx="124.5250" cy="80.5250" r="1.5500" /> 
<path d="M134.0250 42.0250
L132.0250 40.0250
" />
<circle cx="36.5250" cy="80.5250" r="1.5500" /> 
<path d="M40.0250 88.0250
L42.0250 90.0250
" />
<path d="M128.0250 0.0250
L130.0250 2.0250
" />
<circle cx="124.5250" cy="124.5250" r="1.5500" /> 
<path d="M145.0700 25.0025
L145.0705 25.0025
" />
<path d="M128.0250 44.0250
L130.0250 46.0250
" />
<path d="M147.6200 28.9800 A2.5500 2.5500 0.0 0 0 145.0700 26.4300" />
<path d="M107.9000 73.5250 A1.1250 1.1250 0.0 0 0 110.1500 73.5250" />
<circle cx="57.0750" cy="117.0250" r="1.5500" /> 
<circle cx="28.9750" cy="117.0250" r="1.5500" /> 
<path d="M134.0250 0.0250
L132.0250 2.0250
" />
<path d="M128.0250 86.0250
L130.0250 84.0250
" />
<path d="M151.9000 73.5250 A1.1250 1.1250 0.0 0 0 154.1500 73.5250" />
<path d="M103.6250 117.0250 A2.5500 2.5500 0.0 0 0 101.0750 114.4750" />
<path d="M101.0700 15.6200 A2.5500 2.5500 0.0 0 0 103.6200 13.0700" />
<path d="M26.4250 117.0250
L15.6250 117.0250
" />
<path d="M84.0250 44.0250
L86.0250 46.0250
" />
<path d="M12.5250 59.0750 A2.5500 2.5500 0.0 0 0 15.0750 56.5250" />
<circle cx="13.0700" cy="13.0700" r="1.5500" /> 
<circle cx="93.5250" cy="80.5250" r="1.5500" /> 
<path d="M145.0750 107.9000
L145.0750 103.5750
" />
<circle cx="137.5250" cy="36.5250" r="1.5500" /> 
<path d="M26.9750 56.5250 A2.5500 2.5500 0.0 0 0 29.5250 59.0750" />
<path d="M154.1500 56.5250 A1.1250 1.1250 0.0 0 0 151.9000 56.5250" />
<circle cx="145.0750" cy="101.0250" r="1.5500" /> 
<path d="M172.0250 130.0250
L174.0250 128.0250
" />
<path d="M72.9795 113.0025
L72.9800 113.0025
" />
<path d="M116.9795 17.0475
L116.9800 17.0475
" />
<path d="M46.0250 0.0250
L44.0250 2.0250
" />
<path d="M145.0750 103.5750 A2.5500 2.5500 0.0 0 0 147.6250 101.0250" />
<path d="M19.9000 73.5250
L15.0750 73.5250
" />
<path d="M103.0750 73.5250 A2.5500 2.5500 0.0 0 0 100.5250 70.9750" />
<circle cx="36.5250" cy="124.5250" r="1.5500" /> 
<circle cx="72.9750" cy="101.0250" r="1.5500" /> 
<path d="M40.0250 88.0250
L2.0250 88.0250
" />
<path d="M101.0700 105.0475
L101.0705 105.0475
" />
<path d="M172.0250 86.0250
L174.0250 84.0250
" />
<path d="M158.4250 101.0250 A2.5500 2.5500 0.0 0 0 160.9750 103.5750" />
<circle cx="161.5250" cy="73.5250" r="1.5500" /> 
<path d="M132.0250 128.0250
L132.0250 90.0250
" />
<path d="M63.9000 73.5250 A1.1250 1.1250 0.0 0 0 66.1500 73.5250" />
<path d="M158.9750 56.5250 A2.5500 2.5500 0.0 0 0 161.5250 59.0750" />
<circle cx="72.9800" cy="13.0700" r="1.5500" /> 
<path d="M130.0250 84.0250
L130.0250 46.0250
" />
<circle cx="5.5250" cy="49.5250" r="1.5500" /> 
<path d="M116.9800 26.4300 A2.5500 2.5500 0.0 0 0 114.4300 28.9800" />
<path d="M128.0250 44.0250
L90.0250 44.0250
" />
<path d="M70.4250 101.0250 A2.5500 2.5500 0.0 0 0 72.9750 103.5750" />
<path d="M90.0250 130.0250
L88.0250 128.0250
" />
<path d="M105.0475 13.0700
L105.0475 13.0705
" />
<path d="M28.9750 114.4750 A2.5500 2.5500 0.0 0 0 26.4250 117.0250" />
<path d="M84.0250 88.0250
L46.0250 88.0250
" />
<circle cx="168.5250" cy="49.5250" r="1.5500" /> 
<path d="M114.4300 13.0700
L103.6200 13.0700
" />
<path d="M70.9750 56.5250 A2.5500 2.5500 0.0 0 0 73.5250 59.0750" />
<path d="M40.0250 130.0250
L2.0250 130.0250
" />
<circle cx="13.0750" cy="101.0250" r="1.5500" /> 
<path d="M116.9795 25.0025
L116.9800 25.0025
" />
<path d="M88.0250 40.0250
L88.0250 2.0250
" />
<path d="M101.0700 15.6200
L101.0700 26.4300
" />
<path d="M26.4300 13.0700 A2.5500 2.5500 0.0 0 0 28.9800 15.6200" />
<circle cx="168.5250" cy="93.5250" r="1.5500" /> 
<path d="M0.0250 40.0250
L0.0250 2.0250
" />
<circle cx="160.9800" cy="28.9800" r="1.5500" /> 
<circle cx="56.5250" cy="56.5250" r="1.5500" /> 
<path d="M2.0250 44.0250
L0.0250 46.0250
" />
<path d="M72.9795 25.0025
L72.9800 25.0025
" />
<path d="M107.9000 56.5250
L103.0750 56.5250
" />
<path d="M19.9000 73.5250 A1.1250 1.1250 0.0 0 0 22.1500 73.5250" />
<circle cx="29.5250" cy="73.5250" r="1.5500" /> 
<path d="M22.1500 28.9800
L26.4300 28.9800
" />
<path d="M145.0700 15.6200
L145.0700 26.4300
" />
<path d="M174.0250 128.0250
L174.0250 90.0250
" />
<path d="M158.4300 13.0700 A2.5500 2.5500 0.0 0 0 160.9800 15.6200" />
<circle cx="117.5250" cy="73.5250" r="1.5500" /> 
<circle cx="36.5250" cy="93.5250" r="1.5500" /> 
<path d="M40.0250 44.0250
L42.0250 46.0250
" />
<circle cx="36.5250" cy="36.5250" r="1.5500" /> 
<circle cx="5.5250" cy="93.5250" r="1.5500" /> 
<path d="M19.9000 28.9800 A1.1250 1.1250 0.0 0 0 22.1500 28.9800" />
<path d="M57.0750 107.9000 A1.1250 1.1250 0.0 0 0 57.0750 110.1500" />
<path d="M132.0250 84.0250
L132.0250 46.0250
" />
<circle cx="80.5250" cy="124.5250" r="1.5500" /> 
<path d="M84.0250 88.0250
L86.0250 90.0250
" />
<path d="M69.0025 28.9800
L69.0025 28.9795
" />
<path d="M66.1500 56.5250 A1.1250 1.1250 0.0 0 0 63.9000 56.5250" />
<path d="M29.5250 70.9750 A2.5500 2.5500 0.0 0 0 26.9750 73.5250" />
<path d="M19.9000 101.0250
L15.6250 101.0250
" />
<path d="M22.1500 56.5250 A1.1250 1.1250 0.0 0 0 19.9000 56.5250" />
<path d="M13.0750 110.1500
L13.0750 114.4750
" />
<path d="M19.9000 28.9800
L15.6200 28.9800
" />
<path d="M101.0700 113.0025
L101.0705 113.0025
" />
<path d="M160.9750 110.1500
L160.9750 114.4750
" />
<path d="M160.9750 103.5750
L160.9750 107.9000
" />
<path d="M110.1500 28.9800
L114.4300 28.9800
" />
<path d="M57.0700 15.6200 A2.5500 2.5500 0.0 0 0 59.6200 13.0700" />
<path d="M147.6250 117.0250 A2.5500 2.5500 0.0 0 0 145.0750 114.4750" />
<circle cx="117.5250" cy="56.5250" r="1.5500" /> 
<path d="M72.9750 114.4750 A2.5500 2.5500 0.0 0 0 70.4250 117.0250" />
<path d="M70.4300 13.0700
L59.6200 13.0700
" />
<path d="M128.0250 0.0250
L90.0250 0.0250
" />
<path d="M160.9795 25.0025
L160.9800 25.0025
" />
<path d="M84.0250 130.0250
L86.0250 128.0250
" />
<path d="M13.0700 105.0475
L13.0705 105.0475
" />
<path d="M161.5250 59.0750
L161.5250 70.9750
" />
<path d="M2.0250 42.0250
L0.0250 40.0250
" />
<path d="M113.0025 13.0700
L113.0025 13.0705
" />
<path d="M17.0475 13.0700
L17.0475 13.0705
" />
<path d="M145.0700 113.0025
L145.0705 113.0025
" />
<path d="M172.0250 0.0250
L134.0250 0.0250
" />
<path d="M113.0025 28.9800
L113.0025 28.9795
" />
<path d="M158.4250 117.0250
L147.6250 117.0250
" />
<circle cx="57.0700" cy="13.0700" r="1.5500" /> 
<path d="M40.0250 0.0250
L42.0250 2.0250
" />
<path d="M160.9750 114.4750 A2.5500 2.5500 0.0 0 0 158.4250 117.0250" />
<path d="M13.0750 107.9000
L13.0750 103.5750
" />
<circle cx="29.5250" cy="56.5250" r="1.5500" /> 
<path d="M88.0250 128.0250
L88.0250 90.0250
" />
<path d="M70.4300 13.0700 A2.5500 2.5500 0.0 0 0 72.9800 15.6200" />
<path d="M110.1500 56.5250 A1.1250 1.1250 0.0 0 0 107.9000 56.5250" />
<path d="M57.0700 25.0025
L57.0705 25.0025
" />
<path d="M70.4250 117.0250
L59.6250 117.0250
" />
<path d="M101.0750 107.9000 A1.1250 1.1250 0.0 0 0 101.0750 110.1500" />
<path d="M103.6200 28.9800 A2.5500 2.5500 0.0 0 0 101.0700 26.4300" />
<path d="M66.1500 73.5250
L70.9750 73.5250
" />
<path d="M15.0750 73.5250 A2.5500 2.5500 0.0 0 0 12.5250 70.9750" />
<path d="M29.5250 59.0750
L29.5250 70.9750
" />
<path d="M90.0250 88.0250
L88.0250 90.0250
" />
<path d="M63.9000 73.5250
L59.0750 73.5250
" />
<path d="M151.9000 73.5250
L147.0750 73.5250
" />
<circle cx="160.9750" cy="117.0250" r="1.5500" /> 
<path d="M17.0475 28.9800
L17.0475 28.9795
" />
<path d="M145.0700 15.6200 A2.5500 2.5500 0.0 0 0 147.6200 13.0700" />
<path d="M128.0250 88.0250
L90.0250 88.0250
" />
<path d="M116.9750 103.5750
L116.9750 107.9000
" />
<path d="M72.9800 26.4300
L72.9800 15.6200
" />
<path d="M107.9000 73.5250
L103.0750 73.5250
" />
<circle cx="124.5250" cy="5.5250" r="1.5500" /> 
<path d="M42.0250 40.0250
L42.0250 2.0250
" />
<path d="M110.1500 73.5250
L114.9750 73.5250
" />
<circle cx="145.0700" cy="13.0700" r="1.5500" /> 
<path d="M46.0250 44.0250
L44.0250 46.0250
" />
<path d="M157.0025 13.0700
L157.0025 13.0705
" />
<path d="M28.9750 110.1500
L28.9750 114.4750
" />
<path d="M40.0250 42.0250
L42.0250 40.0250
" />
<path d="M105.0475 101.0700
L105.0475 101.0705
" />
<path d="M174.0250 40.0250
L174.0250 2.0250
" />
<circle cx="57.0700" cy="28.9800" r="1.5500" /> 
<circle cx="168.5250" cy="36.5250" r="1.5500" /> 
<path d="M2.0250 130.0250
L0.0250 128.0250
" />
<circle cx="137.5250" cy="124.5250" r="1.5500" /> 
<path d="M161.5250 70.9750 A2.5500 2.5500 0.0 0 0 158.9750 73.5250" />
<circle cx="124.5250" cy="93.5250" r="1.5500" /> 
<path d="M105.0475 28.9800
L105.0475 28.9795
" />
<path d="M44.0250 84.0250
L44.0250 46.0250
" />
<circle cx="12.5250" cy="73.5250" r="1.5500" /> 
<path d="M22.1500 73.5250
L26.9750 73.5250
" />
<path d="M57.0750 110.1500
L57.0750 114.4750
" />
<path d="M25.0025 28.9800
L25.0025 28.9795
" />
<path d="M84.0250 86.0250
L86.0250 84.0250
" />
<path d="M84.0250 0.0250
L86.0250 2.0250
" />
<path d="M149.0475 13.0700
L149.0475 13.0705
" />
<circle cx="12.5250" cy="56.5250" r="1.5500" /> 
<circle cx="73.5250" cy="73.5250" r="1.5500" /> 
<path d="M172.0250 44.0250
L134.0250 44.0250
" />
<circle cx="49.5250" cy="36.5250" r="1.5500" /> 
<circle cx="28.9800" cy="28.9800" r="1.5500" /> 
<path d="M63.9000 101.0250
L59.6250 101.0250
" />
<path d="M154.1500 101.0250
L158.4250 101.0250
" />
<path d="M57.0700 105.0475
L57.0705 105.0475
" />
<path d="M57.0700 17.0475
L57.0705 17.0475
" />
<circle cx="28.9800" cy="13.0700" r="1.5500" /> 
<circle cx="93.5250" cy="93.5250" r="1.5500" /> 
<path d="M73.5250 59.0750
L73.5250 70.9750
" />
<circle cx="160.9800" cy="13.0700" r="1.5500" /> 
<path d="M15.6250 117.0250 A2.5500 2.5500 0.0 0 0 13.0750 114.4750" />
<path d="M101.0750 103.5750 A2.5500 2.5500 0.0 0 0 103.6250 101.0250" />
<path d="M72.9750 110.1500 A1.1250 1.1250 0.0 0 0 72.9750 107.9000" />
<path d="M57.0750 107.9000
L57.0750 103.5750
" />
<circle cx="168.5250" cy="124.5250" r="1.5500" /> 
<path d="M144.5250 59.0750
L144.5250 70.9750
" />
<path d="M44.0250 128.0250
L44.0250 90.0250
" />
<path d="M157.0025 28.9800
L157.0025 28.9795
" />
<path d="M42.0250 84.0250
L42.0250 46.0250
" />
<path d="M132.0250 40.0250
L132.0250 2.0250
" />
<circle cx="124.5250" cy="49.5250" r="1.5500" /> 
<path d="M90.0250 0.0250
L88.0250 2.0250
" />
<path d="M101.0700 25.0025
L101.0705 25.0025
" />
<circle cx="137.5250" cy="80.5250" r="1.5500" /> 
<path d="M172.0250 44.0250
L174.0250 46.0250
" />
<path d="M149.0475 28.9800
L149.0475 28.9795
" />
<path d="M15.6200 28.9800 A2.5500 2.5500 0.0 0 0 13.0700 26.4300" />
<circle cx="49.5250" cy="5.5250" r="1.5500" /> 
<path d="M110.1500 101.0250 A1.1250 1.1250 0.0 0 0 107.9000 101.0250" />
<path d="M144.5250 59.0750 A2.5500 2.5500 0.0 0 0 147.0750 56.5250" />
<path d="M90.0250 42.0250
L88.0250 40.0250
" />
<path d="M100.5250 59.0750 A2.5500 2.5500 0.0 0 0 103.0750 56.5250" />
<circle cx="160.9750" cy="101.0250" r="1.5500" /> 
<path d="M134.0250 88.0250
L132.0250 90.0250
" />
<path d="M72.9795 17.0475
L72.9800 17.0475
" />
<path d="M72.9795 105.0475
L72.9800 105.0475
" />
<circle cx="144.5250" cy="56.5250" r="1.5500" /> 
<path d="M154.1500 101.0250 A1.1250 1.1250 0.0 0 0 151.9000 101.0250" />
<path d="M101.0750 107.9000
L101.0750 103.5750
" />
<path d="M128.0250 42.0250
L130.0250 40.0250
" />
<path d="M66.1500 101.0250
L70.4250 101.0250
" />
<path d="M172.0250 88.0250
L174.0250 90.0250
" />
<path d="M66.1500 101.0250 A1.1250 1.1250 0.0 0 0 63.9000 101.0250" />
<path d="M86.0250 40.0250
L86.0250 2.0250
" />
<path d="M2.0250 88.0250
L0.0250 90.0250
" />
<path d="M40.0250 130.0250
L42.0250 128.0250
" />
<path d="M28.9795 17.0475
L28.9800 17.0475
" />
<path d="M158.4300 13.0700
L147.6200 13.0700
" />
<path d="M73.5250 70.9750 A2.5500 2.5500 0.0 0 0 70.9750 73.5250" />
<path d="M151.9000 56.5250
L147.0750 56.5250
" />
<path d="M172.0250 86.0250
L134.0250 86.0250
" />
<path d="M2.0250 0.0250
L0.0250 2.0250
" />
<path d="M174.0250 84.0250
L174.0250 46.0250
" />
<path d="M84.0250 130.0250
L46.0250 130.0250
" />
<circle cx="101.0750" cy="101.0250" r="1.5500" /> 
<path d="M117.5250 70.9750 A2.5500 2.5500 0.0 0 0 114.9750 73.5250" />
<path d="M59.6250 117.0250 A2.5500 2.5500 0.0 0 0 57.0750 114.4750" />
<circle cx="5.5250" cy="124.5250" r="1.5500" /> 
<path d="M26.4300 13.0700
L15.6200 13.0700
" />
<circle cx="36.5250" cy="5.5250" r="1.5500" /> 
<circle cx="116.9800" cy="28.9800" r="1.5500" /> 
<circle cx="144.5250" cy="73.5250" r="1.5500" /> 
</g> 
</svg>
